<?xml version="1.0" encoding="utf-8"?>
<!-- Generator: Adobe Illustrator 23.0.0, SVG Export Plug-In . SVG Version: 6.00 Build 0)  -->
<svg version="1.1" id="Layer_1" xmlns="http://www.w3.org/2000/svg" xmlns:xlink="http://www.w3.org/1999/xlink" x="0px" y="0px"
	 viewBox="0 0 1920 1700" style="enable-background:new 0 0 1920 1700;" xml:space="preserve">
<style type="text/css">
	.st0{fill:#FFFFFF;}
	.st1{fill:#D04A55;}
	.st2{fill:#F3CB60;}
	.st3{fill:none;stroke:#717171;}
	.st4{fill:#508CC1;}
	.st5{fill:#F6F6F6;}
	.st6{fill:#F1F5F9;}
	.st7{enable-background:new    ;}
	.st8{fill:none;stroke:#F3CB60;stroke-width:5;stroke-linecap:round;stroke-linejoin:round;stroke-miterlimit:10;}
</style>
<g id="Path_5351">
	<path class="st4" d="M2010.9,764.5c-27.9,0.1-55.8,3.6-82.9,10.5c2.6-18.4,5.3-36.8,5.3-55.2c0-157.8-117.1-288.1-268.3-309.1v-3.9
		c0.3-196.6-158.8-356.2-355.3-356.5c-0.4,0-0.7,0-1.1,0c-151.3,0-280.2,94.7-331.5,227.6c-31.6-11.8-64.5-17.1-98.6-17.1
		c-107.9,0-201.2,57.9-251.2,144.7c-60.5-44.7-135.5-72.3-217-72.3C242.7,332.9,96.7,446.8,56.3,609.3H44.5
		c-183.8-0.3-333,148.4-333.4,332.2c-0.3,183.8,148.4,333,332.2,333.4c0.4,0,0.8,0,1.2,0c10.5,0,21,0,31.6-1.3
		c-1.3,13.2-2.6,27.6-2.6,42.1c0,188.1,152.6,339.4,339.4,339.4c125,0,234.1-67.1,292-168.4c21,3.9,42.1,6.6,64.5,6.6
		c106.5,0,202.6-46,269.6-119.7c30.5,7.9,61.9,11.9,93.4,11.8c28.9,0,56.6-2.6,84.2-9.2c47.4,114.4,159.2,193.4,290.7,193.4
		c144.7,0,265.7-97.3,302.5-230.2c55.2,43.4,125,71,201.2,71c178.9,0,323.6-144.7,323.6-323.6
		C2334.5,910.5,2189.8,764.5,2010.9,764.5z"/>
</g>
<g id="Group_213" transform="translate(580.384 1346.114)">
	<g class="st7">
		<path class="st0" d="M420.2-792.2v54.4c0,2.5-2.1,4.5-4.5,4.5c-2.5,0-4.6-2-4.6-4.5v-22.5H383v22.5c0,2.5-2.1,4.5-4.6,4.5
			c-2.5,0-4.6-2-4.6-4.5v-54.4c0-2.5,2-4.5,4.6-4.5c2.5,0,4.6,2.1,4.6,4.5v22.8h28.1v-22.8c0-2.5,2-4.5,4.6-4.5
			C418.1-796.8,420.2-794.7,420.2-792.2z"/>
		<path class="st0" d="M471.2-756.1c0,2.5-2,4.5-4.5,4.5h-31.4c1.9,5.5,7,9.4,13.1,9.4c2.1,0,5.8-0.2,10.2-3c2.1-1.4,4.9-0.1,6,2.1
			c1.1,2.3-0.1,4.6-2.2,6c-6,4-10.6,3.9-14,3.9c-12.6,0-22.8-10.3-22.8-22.8c0-12.6,10.2-22.8,22.8-22.8
			C459.3-778.9,471.2-770.9,471.2-756.1z M435.2-760.6h26.3c-1.9-6.4-7.7-9.3-13.2-9.3C442.2-769.9,437.1-766,435.2-760.6z"/>
		<path class="st0" d="M476.7-737.7v-59.2c0-2.5,2-4.5,4.5-4.5c2.5,0,4.5,2,4.5,4.5v59.2c0,2.5-2,4.5-4.5,4.5
			C478.7-733.1,476.7-735.1,476.7-737.7z"/>
		<path class="st0" d="M491.4-737.7v-59.2c0-2.5,2-4.5,4.5-4.5c2.5,0,4.5,2,4.5,4.5v59.2c0,2.5-2,4.5-4.5,4.5
			C493.4-733.1,491.4-735.1,491.4-737.7z"/>
		<path class="st0" d="M505.6-756.1c0-12.6,10.3-22.8,22.8-22.8c12.6,0,22.8,10.2,22.8,22.8c0,12.6-10.2,22.8-22.8,22.8
			C515.8-733.2,505.6-743.5,505.6-756.1z M514.6-756.1c0,7.6,6.2,13.8,13.8,13.8s13.8-6.3,13.8-13.8c0-7.6-6.2-13.8-13.8-13.8
			S514.6-763.7,514.6-756.1z"/>
		<path class="st0" d="M556.7-734.1l7.1-7.1c1.7-1.7,4.4-2,6.1-0.3c1.7,1.8,1.5,4.5-0.3,6.2l-7.1,7.1c-1.8,1.8-4.4,2-6.1,0.2
			C554.6-729.7,554.9-732.2,556.7-734.1z"/>
		<path class="st0" d="M605.5-737.7v-55c0-2.5,2-4.5,4.5-4.5c2.5,0,4.5,2,4.5,4.5v55c0,2.5-2,4.5-4.5,4.5
			C607.5-733.1,605.5-735.1,605.5-737.7z"/>
		<path class="st0" d="M693.3-755.7v17.8c0,2.6-1.9,4.6-4.5,4.6c-1.8,0-4.4-1.9-4.4-4.6c-3.9,3.3-8.3,4.6-13.5,4.6
			c-12.8,0-23-9.6-23-22.4c0-12.8,10.2-23,23-23S693.3-768.5,693.3-755.7z M684.4-755.7c0-7.6-5.8-14.1-13.5-14.1
			s-14.1,6.5-14.1,14.1c0,7.6,6.5,13.5,14.1,13.5S684.4-748.1,684.4-755.7z"/>
		<path class="st0" d="M762.5-760.2c0.1,0.2,0.1,0.3,0.1,0.5v22.1c0,2.5-2.1,4.5-4.5,4.5s-4.5-2-4.5-4.5v-22.1c0-0.2,0-0.3,0-0.5
			c0-0.1,0-0.2,0-0.4c0-5.1-4.2-9.2-9.3-9.2c-5.1,0-9.3,4.1-9.3,9.2v22.9c0,2.5-2,4.5-4.5,4.5s-4.5-2-4.5-4.5v-22.9
			c0-5.1-4.1-9.2-9.2-9.2s-9.3,4.1-9.3,9.2v22.9c0,2.5-2,4.5-4.5,4.5c-2.5,0-4.6-2-4.6-4.5v-22.9c0-10,8.2-18.2,18.3-18.2
			c5.5,0,10.4,2.4,13.7,6.3c3.4-3.9,8.3-6.3,13.7-6.3c10.1,0,18.3,8.2,18.3,18.2C762.6-760.4,762.6-760.3,762.5-760.2z"/>
		<path class="st0" d="M839.7-733.3c-2.1,0.5-4.9-0.5-6-3.3l-3.3-9.3h-22.2l-3.8,9.3c-0.5,2.1-2.2,3.3-4.4,3.3c-0.5,0-0.5,0-1,0
			c-2.7-1.2-3.8-3.8-3.3-6l19.5-54.2c0.5-1.7,2.2-3.3,4.5-3.3c2.2,0,3.7,1.5,4.3,3.3l18.5,54.2C843.4-737.1,842.4-734.5,839.7-733.3
			z M827.7-755.1l-8-23.3l-8.2,23.3H827.7z"/>
		<path class="st0" d="M848-737.7v-59.2c0-2.5,2-4.5,4.5-4.5c2.5,0,4.5,2,4.5,4.5v59.2c0,2.5-2,4.5-4.5,4.5
			C850-733.1,848-735.1,848-737.7z"/>
		<path class="st0" d="M871.6-737.5v22.7c0,2.5-2,4.5-4.5,4.5c-2.5,0-4.5-2-4.5-4.5v-40.8v-0.1c0-12.6,10.3-22.8,22.8-22.8
			c12.6,0,22.8,10.3,22.8,22.8c0,12.6-10.2,22.8-22.8,22.8C880.2-732.9,875.4-734.6,871.6-737.5z M871.6-755.7L871.6-755.7
			c0,7.6,6.2,13.8,13.8,13.8c7.6,0,13.8-6.2,13.8-13.8c0-7.6-6.2-13.8-13.8-13.8C877.7-769.5,871.6-763.4,871.6-755.7z"/>
		<path class="st0" d="M953.5-758.9v21.1c0,2.5-2.1,4.5-4.6,4.5s-4.5-2-4.5-4.5v-21.1c0-6.1-5-11-11.1-11s-11,4.9-11,11v21.1
			c0,2.5-2,4.5-4.6,4.5c-2.5,0-4.5-2-4.5-4.5V-797c0-2.5,2-4.5,4.5-4.5c2.5,0,4.6,2,4.6,4.5v21.4c3.2-2.1,6.9-3.3,11-3.3
			C944.4-778.9,953.5-769.9,953.5-758.9z"/>
		<path class="st0" d="M1004.3-755.7v17.8c0,2.6-1.9,4.6-4.5,4.6c-1.8,0-4.4-1.9-4.4-4.6c-3.9,3.3-8.3,4.6-13.5,4.6
			c-12.8,0-23-9.6-23-22.4c0-12.8,10.2-23,23-23C994.8-778.7,1004.3-768.5,1004.3-755.7z M995.4-755.7c0-7.6-5.8-14.1-13.5-14.1
			s-14.1,6.5-14.1,14.1c0,7.6,6.5,13.5,14.1,13.5S995.4-748.1,995.4-755.7z"/>
	</g>
	<g class="st7">
		<path class="st0" d="M110-587.8v-55.6c0-2.5,2-4.5,4.6-4.5c2.5,0,4.5,2,4.5,4.5v55.6c0,2.6-2,4.6-4.5,4.6
			C112.1-583.2,110-585.2,110-587.8z"/>
		<path class="st0" d="M123.7-633.4v-10.1c0-2.5,1.7-4.6,4.1-4.6c2.6,0.1,4.2,2.2,4.2,4.7v10.1c0,2.6-1.7,4.5-4.2,4.5
			C125.3-628.8,123.7-630.8,123.7-633.4z"/>
		<path class="st0" d="M201.2-610.5c0.1,0.2,0.1,0.3,0.1,0.5v22.4c0,2.6-2.1,4.6-4.6,4.6s-4.5-2-4.5-4.6V-610c0-0.2,0-0.3,0-0.5
			c0-0.1,0-0.2,0-0.4c0-5.2-4.2-9.3-9.4-9.3c-5.2,0-9.4,4.1-9.4,9.3v23.2c0,2.6-2,4.6-4.5,4.6s-4.6-2-4.6-4.6v-23.2
			c0-5.2-4.1-9.3-9.3-9.3c-5.2,0-9.4,4.1-9.4,9.3v23.2c0,2.6-2,4.6-4.5,4.6c-2.6,0-4.6-2-4.6-4.6v-23.2c0-10.1,8.3-18.4,18.5-18.4
			c5.5,0,10.5,2.4,13.9,6.3c3.4-4,8.4-6.3,13.9-6.3c10.2,0,18.5,8.3,18.5,18.4C201.3-610.7,201.3-610.6,201.2-610.5z"/>
		<path class="st0" d="M281.2-606.4v18.5c0,2.6-2,4.6-4.6,4.6c-2.5,0-4.5-2-4.5-4.6v-18.5c0-7.7-6.3-14-14-14c-7.7,0-14,6.3-14,14
			v18.5c0,2.6-2,4.6-4.6,4.6c-2.5,0-4.5-2-4.5-4.6v-18.5c0-12.8,10.4-23.1,23.1-23.1C270.8-629.5,281.2-619.2,281.2-606.4z"/>
		<path class="st0" d="M286.6-606.4c0-12.8,10.4-23.1,23.1-23.1c12.8,0,23.1,10.3,23.1,23.1c0,12.7-10.3,23.1-23.1,23.1
			C297-583.3,286.6-593.7,286.6-606.4z M295.7-606.4c0,7.6,6.3,14,14,14s14-6.3,14-14c0-7.7-6.3-14-14-14S295.7-614.1,295.7-606.4z"
			/>
		<path class="st0" d="M364-624.9c0,2.5-2,4.6-4.6,4.6h-6.5v32.5c0,2.5-2,4.6-4.6,4.6c-2.5,0-4.5-2.1-4.5-4.6v-32.5h-6.6
			c-2.5,0-4.5-2.1-4.5-4.6c0-2.5,2-4.5,4.5-4.5h6.6v-18.4c0-2.5,2-4.5,4.5-4.5c2.6,0,4.6,2,4.6,4.5v18.4h6.5
			C361.9-629.4,364-627.3,364-624.9z"/>
		<path class="st0" d="M441.1-606v18c0,2.7-1.9,4.6-4.6,4.6c-1.8,0-4.4-1.9-4.4-4.6c-4,3.3-8.4,4.6-13.6,4.6
			c-13,0-23.3-9.7-23.3-22.6c0-13,10.3-23.3,23.3-23.3C431.5-629.3,441.1-619,441.1-606z M432.1-606c0-7.7-5.9-14.3-13.6-14.3
			c-7.7,0-14.3,6.5-14.3,14.3s6.5,13.6,14.3,13.6C426.2-592.4,432.1-598.3,432.1-606z"/>
		<path class="st0" d="M538.7-615.4c0,4.2-0.8,8.5-2.5,12.4c-1.7,3.8-4,7.2-6.9,10.1c-2.9,2.9-6.3,5.2-10.1,6.9
			c-4,1.7-8.2,2.5-12.5,2.5c-4.2,0-8.5-0.8-12.4-2.5c-3.8-1.7-7.2-4-10.1-6.9c-2.9-2.9-5.2-6.3-6.9-10.1c-1.7-4-2.5-8.2-2.5-12.4
			c0-4.3,0.8-8.6,2.5-12.5c1.7-3.8,4-7.2,6.9-10.1c2.9-2.9,6.3-5.2,10.1-6.9c4-1.7,8.1-2.5,12.3-2.5c10.4-0.3,19.7,4,26.6,13.2
			c1.6,2.1,0.6,5.1-1.7,6.3c-2.3,1.3-4.8,0.3-6.4-1.7c-5.2-6.2-11.2-8.7-18.5-8.7c-12.5,0.1-22.6,10.2-22.6,22.8
			c0,12.5,10.2,22.7,22.7,22.7c11,0,20.2-7.8,22.4-18.1h-20c-2.6,0-4.6-2.1-4.6-4.6c0-2.6,2-4.6,4.6-4.6h25
			C536.5-620,538.7-618,538.7-615.4z"/>
		<path class="st0" d="M571.4-624.9c0,2.5-2,4.6-4.6,4.6c-7.7,0-14,6.3-14,14v18.5c0,2.5-2,4.6-4.5,4.6c-2.6,0-4.6-2.1-4.6-4.6
			v-18.5c0-12.8,10.4-23.1,23.1-23.1C569.4-629.4,571.4-627.3,571.4-624.9z"/>
		<path class="st0" d="M616.8-606v18c0,2.7-1.9,4.6-4.6,4.6c-1.8,0-4.4-1.9-4.4-4.6c-4,3.3-8.4,4.6-13.6,4.6
			c-13,0-23.3-9.7-23.3-22.6c0-13,10.3-23.3,23.3-23.3C607.1-629.3,616.8-619,616.8-606z M607.7-606c0-7.7-5.9-14.3-13.6-14.3
			c-7.7,0-14.3,6.5-14.3,14.3s6.5,13.6,14.3,13.6C601.9-592.4,607.7-598.3,607.7-606z"/>
		<path class="st0" d="M631.5-587.6v22.9c0,2.5-2,4.5-4.5,4.5c-2.6,0-4.6-2-4.6-4.5v-41.2v-0.1c0-12.7,10.4-23.1,23.1-23.1
			c12.8,0,23.1,10.4,23.1,23.1c0,12.8-10.3,23.1-23.1,23.1C640.2-582.9,635.3-584.7,631.5-587.6z M631.5-606L631.5-606
			c0,7.7,6.3,14,14,14s14-6.3,14-14c0-7.6-6.3-14-14-14S631.5-613.7,631.5-606z"/>
		<path class="st0" d="M714.3-609.2v21.3c0,2.6-2.1,4.6-4.6,4.6c-2.5,0-4.5-2-4.5-4.6v-21.3c0-6.2-5.1-11.1-11.2-11.1
			s-11.1,5-11.1,11.1v21.3c0,2.6-2,4.6-4.6,4.6c-2.5,0-4.5-2-4.5-4.6v-59.9c0-2.5,2-4.5,4.5-4.5c2.6,0,4.6,2,4.6,4.5v21.6
			c3.2-2.1,7-3.3,11.1-3.3C705.2-629.5,714.3-620.3,714.3-609.2z"/>
		<path class="st0" d="M721.3-639.8c-0.8-0.8-1.4-2-1.4-3.2s0.6-2.4,1.4-3.2c0.8-0.8,2-1.4,3.2-1.4c1.2,0,2.4,0.6,3.2,1.4
			c0.8,0.8,1.3,2,1.3,3.2s-0.5,2.4-1.3,3.2c-0.8,0.8-2,1.3-3.2,1.3C723.3-638.6,722.1-639,721.3-639.8z M719.9-587.8v-37.1
			c0-2.5,2-4.5,4.6-4.5c2.5,0,4.5,2,4.5,4.5v37.1c0,2.6-2,4.6-4.5,4.6C721.9-583.2,719.9-585.2,719.9-587.8z"/>
		<path class="st0" d="M734.2-606.3c0-12.8,10.3-23.1,23-23.1c8.3,0,15.9,4.4,20.1,11.5c1.3,2.2,0.5,5-1.7,6.3
			c-2.2,1.2-5,0.5-6.3-1.7c-2.5-4.3-7.1-7-12.1-7c-7.6,0-14,6.3-14,14c0,7.6,6.3,14,14,14c4.8,0,9.2-2.4,11.8-6.4
			c1.4-2.1,4.2-2.7,6.3-1.4c2.1,1.4,2.7,4.2,1.3,6.3c-4.2,6.6-11.5,10.6-19.4,10.6C744.5-583.2,734.2-593.6,734.2-606.3z"/>
		<path class="st0" d="M816.9-583.2c-2.5,0-4.6-2.1-4.6-4.6v-55.3c0-2.6,2.1-4.7,4.6-4.7h13.3c4.9,0,9.5,1,13.8,2.9
			c4.1,1.8,7.8,4.5,10.8,7.9c2.9,3.3,5.2,7.2,6.5,11.5c1.4,4.4,1.8,9,1.3,13.8c-0.9,7.8-4.7,15-10.6,20.3
			c-5.9,5.2-13.6,8.2-21.5,8.2H816.9z M830.5-592.4c11.7,0,21.5-8.7,22.9-20.3c0.8-6.9-1.1-13.3-5.4-18.2
			c-4.4-4.9-10.8-7.6-17.8-7.6h-8.7v46.2H830.5z"/>
		<path class="st0" d="M913.7-606.4c0,2.5-2,4.5-4.6,4.5h-31.7c1.9,5.5,7.1,9.5,13.2,9.5c2.1,0,5.9-0.2,10.3-3
			c2.1-1.4,5-0.1,6.1,2.1c1.1,2.3-0.1,4.7-2.2,6.1c-6.1,4-10.8,4-14.2,4c-12.8,0-23.1-10.4-23.1-23.1c0-12.8,10.3-23.1,23.1-23.1
			C901.8-629.5,913.7-621.4,913.7-606.4z M877.4-611H904c-1.9-6.4-7.8-9.4-13.3-9.4C884.5-620.3,879.3-616.4,877.4-611z"/>
		<path class="st0" d="M946.2-597.1c0,7.6-6.2,13.9-13.8,13.9c-6.5,0-11.8-4.7-13.5-10c-0.8-2.4,1.1-4.9,3.5-5.4
			c2.5-0.5,4.2,1.3,5.4,3.6c1.3,2.4,2.4,2.8,4.6,2.8c2.6,0,4.7-2.1,4.7-4.8c0-2.6-2.1-4.7-4.7-4.7c-3.7,0-7.2-1.5-9.8-4
			c-2.7-2.6-4-6.1-4-9.8c0-7.6,6.2-13.8,13.8-13.8c6.4,0,12.3,4.4,13.2,9.6c0.5,2.5-1,5-3.5,5.4c-2.5,0.6-4.6-1.1-5.4-3.4
			c-0.6-1.5-2.1-2.5-4.3-2.5c-2.6,0-4.7,2.1-4.7,4.7c0,2.6,2.1,4.7,4.7,4.7c3.7,0,7.2,1.5,9.8,4
			C944.8-604.2,946.2-600.8,946.2-597.1z"/>
		<path class="st0" d="M953-639.8c-0.8-0.8-1.4-2-1.4-3.2s0.6-2.4,1.4-3.2c0.8-0.8,2-1.4,3.2-1.4c1.2,0,2.4,0.6,3.2,1.4
			c0.8,0.8,1.3,2,1.3,3.2s-0.5,2.4-1.3,3.2c-0.8,0.8-2,1.3-3.2,1.3C955-638.6,953.8-639,953-639.8z M951.6-587.8v-37.1
			c0-2.5,2-4.5,4.6-4.5c2.5,0,4.5,2,4.5,4.5v37.1c0,2.6-2,4.6-4.5,4.6C953.7-583.2,951.6-585.2,951.6-587.8z"/>
		<path class="st0" d="M1012.2-583.3c0,12.7-10.4,23.1-23.1,23.1c-8.9,0-16.8-5-20.8-13c-1.1-2.3-0.2-5,2.1-6.1c2.2-1.1,5-0.2,6.1,2
			c2.4,4.9,7.2,7.9,12.6,7.9c7.6,0,13.8-6.2,14-13.7c0-0.1,0-0.2,0-5.1c-4,2.9-8.7,4.8-14,4.8c-12.8,0-23.1-10.4-23.1-23.1
			c0-12.8,10.3-23.1,23.1-23.1c12.7,0,23.1,10.3,23.1,23.1C1012.2-606.4,1012.2-606.4,1012.2-583.3z M1003.1-606.4
			c0-7.7-6.3-14-14-14c-7.7,0-14,6.3-14,14c0,7.6,6.3,14,14,14C996.7-592.4,1003.1-598.7,1003.1-606.4z"/>
		<path class="st0" d="M1063.8-606.4v18.5c0,2.6-2,4.6-4.6,4.6c-2.5,0-4.5-2-4.5-4.6v-18.5c0-7.7-6.3-14-14-14s-14,6.3-14,14v18.5
			c0,2.6-2,4.6-4.6,4.6c-2.5,0-4.5-2-4.5-4.6v-18.5c0-12.8,10.4-23.1,23.1-23.1S1063.8-619.2,1063.8-606.4z"/>
		<path class="st0" d="M1115.4-606.4c0,2.5-2,4.5-4.6,4.5h-31.7c1.9,5.5,7.1,9.5,13.2,9.5c2.1,0,5.9-0.2,10.3-3
			c2.1-1.4,5-0.1,6.1,2.1c1.1,2.3-0.1,4.7-2.2,6.1c-6.1,4-10.8,4-14.2,4c-12.8,0-23.1-10.4-23.1-23.1c0-12.8,10.3-23.1,23.1-23.1
			C1103.4-629.5,1115.4-621.4,1115.4-606.4z M1079.1-611h26.6c-1.9-6.4-7.8-9.4-13.3-9.4C1086.1-620.3,1081-616.4,1079.1-611z"/>
		<path class="st0" d="M1148.6-624.9c0,2.5-2,4.6-4.6,4.6c-7.7,0-14,6.3-14,14v18.5c0,2.5-2,4.6-4.5,4.6c-2.6,0-4.6-2.1-4.6-4.6
			v-18.5c0-12.8,10.4-23.1,23.1-23.1C1146.6-629.4,1148.6-627.3,1148.6-624.9z"/>
	</g>
	<g class="st7">
		<path class="st0" d="M419.3-438.8v-55.6c0-2.5,2-4.5,4.6-4.5c2.5,0,4.5,2,4.5,4.5v55.6c0,2.6-2,4.6-4.5,4.6
			C421.4-434.2,419.3-436.2,419.3-438.8z"/>
		<path class="st0" d="M433-484.4v-10.1c0-2.5,1.7-4.6,4.1-4.6c2.6,0.1,4.2,2.2,4.2,4.7v10.1c0,2.6-1.7,4.5-4.2,4.5
			C434.6-479.8,433-481.9,433-484.4z"/>
		<path class="st0" d="M510.5-461.5c0.1,0.2,0.1,0.3,0.1,0.5v22.4c0,2.6-2.1,4.6-4.6,4.6s-4.5-2-4.5-4.6v-22.4c0-0.2,0-0.3,0-0.5
			c0-0.1,0-0.2,0-0.4c0-5.2-4.2-9.3-9.4-9.3c-5.2,0-9.4,4.1-9.4,9.3v23.2c0,2.6-2,4.6-4.5,4.6s-4.6-2-4.6-4.6v-23.2
			c0-5.2-4.1-9.3-9.3-9.3c-5.2,0-9.4,4.1-9.4,9.3v23.2c0,2.6-2,4.6-4.5,4.6c-2.6,0-4.6-2-4.6-4.6v-23.2c0-10.1,8.3-18.4,18.5-18.4
			c5.5,0,10.5,2.4,13.9,6.3c3.4-4,8.4-6.3,13.9-6.3c10.2,0,18.5,8.3,18.5,18.4C510.6-461.7,510.6-461.6,510.5-461.5z"/>
		<path class="st0" d="M590.1-457v18c0,2.7-1.9,4.6-4.6,4.6c-1.8,0-4.4-1.9-4.4-4.6c-4,3.3-8.4,4.6-13.6,4.6
			c-13,0-23.3-9.7-23.3-22.6c0-13,10.3-23.3,23.3-23.3C580.4-480.3,590.1-470,590.1-457z M581.1-457c0-7.7-5.9-14.3-13.6-14.3
			c-7.7,0-14.3,6.5-14.3,14.3s6.5,13.6,14.3,13.6C575.2-443.4,581.1-449.3,581.1-457z"/>
		<path class="st0" d="M650.8-448.1c0,7.6-6.2,13.9-13.8,13.9c-6.5,0-11.8-4.7-13.5-10c-0.8-2.4,1.1-4.9,3.5-5.4
			c2.5-0.5,4.2,1.3,5.4,3.6c1.3,2.4,2.4,2.8,4.6,2.8c2.6,0,4.7-2.1,4.7-4.8c0-2.6-2.1-4.7-4.7-4.7c-3.7,0-7.2-1.5-9.8-4
			c-2.7-2.6-4-6.1-4-9.8c0-7.6,6.2-13.8,13.8-13.8c6.4,0,12.3,4.4,13.2,9.6c0.5,2.5-1,5-3.5,5.4c-2.5,0.6-4.6-1.1-5.4-3.4
			c-0.6-1.5-2.1-2.5-4.3-2.5c-2.6,0-4.7,2.1-4.7,4.7c0,2.6,2.1,4.7,4.7,4.7c3.7,0,7.2,1.5,9.8,4
			C649.4-455.2,650.8-451.8,650.8-448.1z"/>
		<path class="st0" d="M685.8-475.9c0,2.5-2,4.6-4.6,4.6h-6.5v32.5c0,2.5-2,4.6-4.6,4.6c-2.5,0-4.5-2.1-4.5-4.6v-32.5h-6.6
			c-2.5,0-4.5-2.1-4.5-4.6c0-2.5,2-4.5,4.5-4.5h6.6v-18.4c0-2.5,2-4.5,4.5-4.5c2.6,0,4.6,2,4.6,4.5v18.4h6.5
			C683.7-480.4,685.8-478.4,685.8-475.9z"/>
		<path class="st0" d="M685.6-457.4c0-12.8,10.4-23.1,23.1-23.1c12.8,0,23.1,10.3,23.1,23.1c0,12.7-10.3,23.1-23.1,23.1
			C696-434.3,685.6-444.7,685.6-457.4z M694.7-457.4c0,7.6,6.3,14,14,14c7.7,0,14-6.3,14-14c0-7.7-6.3-14-14-14
			C700.9-471.4,694.7-465.1,694.7-457.4z"/>
		<path class="st0" d="M764.9-475.9c0,2.5-2,4.6-4.6,4.6c-7.7,0-14,6.3-14,14v18.5c0,2.5-2,4.6-4.5,4.6c-2.6,0-4.6-2.1-4.6-4.6
			v-18.5c0-12.8,10.4-23.1,23.1-23.1C762.9-480.4,764.9-478.4,764.9-475.9z"/>
		<path class="st0" d="M807.4-475.6v45.4c0,10.4-8.6,19-19,19c-7.3,0-13.8-4.1-17-10.7c-1.1-2.2-0.2-5,2.1-6.1c2.2-1.1,5-0.1,6,2.1
			c1.7,3.4,5.2,5.5,8.9,5.5c5.5,0,9.9-4.4,9.9-9.8v-6.6c-2.8,1.7-6,2.6-9.5,2.6c-10.1,0-18.4-8.2-18.5-18.3c0-0.1,0-0.1,0-0.1v-22.9
			c0-2.5,2-4.5,4.5-4.5s4.5,2,4.5,4.5v22.8c0,5.2,4.3,9.5,9.5,9.5c5.2,0,9.5-4.2,9.5-9.5v-22.8c0-2.5,2-4.5,4.5-4.5
			C805.4-480.1,807.4-478.1,807.4-475.6z"/>
		<path class="st0" d="M844.3-475.9c0,2.5-2,4.6-4.6,4.6h-6.5v32.5c0,2.5-2,4.6-4.6,4.6c-2.5,0-4.5-2.1-4.5-4.6v-32.5h-6.6
			c-2.5,0-4.5-2.1-4.5-4.6c0-2.5,2-4.5,4.5-4.5h6.6v-18.4c0-2.5,2-4.5,4.5-4.5c2.6,0,4.6,2,4.6,4.5v18.4h6.5
			C842.3-480.4,844.3-478.4,844.3-475.9z"/>
		<path class="st0" d="M890.3-457.4c0,2.5-2,4.5-4.6,4.5h-31.7c1.9,5.5,7.1,9.5,13.2,9.5c2.1,0,5.9-0.2,10.3-3
			c2.1-1.4,5-0.1,6.1,2.1c1.1,2.3-0.1,4.7-2.2,6.1c-6.1,4-10.8,4-14.2,4c-12.8,0-23.1-10.4-23.1-23.1c0-12.8,10.3-23.1,23.1-23.1
			C878.3-480.5,890.3-472.4,890.3-457.4z M853.9-462h26.6c-1.9-6.4-7.8-9.4-13.3-9.4C861-471.4,855.9-467.4,853.9-462z"/>
		<path class="st0" d="M895.9-438.8v-59.9c0-2.5,2-4.5,4.6-4.5c2.5,0,4.5,2,4.5,4.5v59.9c0,2.6-2,4.6-4.5,4.6
			C897.9-434.2,895.9-436.2,895.9-438.8z"/>
		<path class="st0" d="M910.7-438.8v-59.9c0-2.5,2-4.5,4.6-4.5c2.5,0,4.5,2,4.5,4.5v59.9c0,2.6-2,4.6-4.5,4.6
			C912.7-434.2,910.7-436.2,910.7-438.8z"/>
		<path class="st0" d="M971.5-457.4c0,2.5-2,4.5-4.6,4.5h-31.7c1.9,5.5,7.1,9.5,13.2,9.5c2.1,0,5.9-0.2,10.3-3
			c2.1-1.4,5-0.1,6.1,2.1c1.1,2.3-0.1,4.7-2.2,6.1c-6.1,4-10.8,4-14.2,4c-12.8,0-23.1-10.4-23.1-23.1c0-12.8,10.3-23.1,23.1-23.1
			C959.5-480.5,971.5-472.4,971.5-457.4z M935.2-462h26.6c-1.9-6.4-7.8-9.4-13.3-9.4C942.3-471.4,937.1-467.4,935.2-462z"/>
		<path class="st0" d="M1004.7-475.9c0,2.5-2,4.6-4.6,4.6c-7.7,0-14,6.3-14,14v18.5c0,2.5-2,4.6-4.5,4.6c-2.6,0-4.6-2.1-4.6-4.6
			v-18.5c0-12.8,10.4-23.1,23.1-23.1C1002.7-480.4,1004.7-478.4,1004.7-475.9z"/>
	</g>
</g>
</svg>
