<?xml version="1.0" encoding="utf-8"?>
<!-- Generator: Adobe Illustrator 23.0.0, SVG Export Plug-In . SVG Version: 6.00 Build 0)  -->
<svg version="1.1" id="Layer_1" xmlns="http://www.w3.org/2000/svg" xmlns:xlink="http://www.w3.org/1999/xlink" x="0px" y="0px"
	 viewBox="0 0 1920 1360" style="enable-background:new 0 0 1920 1360;" xml:space="preserve">
<style type="text/css">
	.st0{fill:#FFFFFF;}
	.st1{fill:#D04A55;}
	.st2{fill:#F3CB60;}
	.st3{fill:none;stroke:#717171;}
	.st4{fill:#508CC1;}
	.st5{fill:#F6F6F6;}
	.st6{fill:#F1F5F9;}
	.st7{enable-background:new    ;}
	.st8{font-family:'Arciform';}
	.st9{font-size:83px;}
	.st10{font-size:105px;}
	.st11{font-size:135px;}
	.st12{font-size:77px;}
	.st13{font-size:85px;}
	.st14{font-size:89px;}
	.st15{font-size:73px;}
	.st16{font-size:79px;}
	.st17{fill:none;stroke:#F3CB60;stroke-width:5;stroke-linecap:round;stroke-linejoin:round;stroke-miterlimit:10;}
</style>
<g>
	<path id="Path_5423" class="st2" d="M1723.7,556.9c-15.6,0-29.7,1.4-43.9,2.8c-17-169.8-159.9-301.4-334-301.4
		c-46.7-150-185.4-257.6-349.5-257.6c-148.6,0-274.5,87.7-332.6,215.1c-32.5-7.1-65.1-11.3-99.1-11.3
		c-246.2,0-445.8,199.5-445.8,445.8c0,28,2.8,56,8.5,83.5C46.4,801.3-0.3,901.4,0,1006.9c0,193.9,158.5,352.4,355.2,352.4
		c89.2,0,169.8-32.5,233.5-87.7c41.4,22.1,87.5,33.8,134.4,34c69.3,0,131.6-24.1,181.1-65.1c69.3,60.9,158.5,97.6,257.6,97.6
		c106.1,0,203.8-42.5,273.1-111.8c72.2,76.4,174.1,124.5,287.3,124.5c219.3,0,397.7-178.3,397.7-397.7
		C2121.3,733.8,1943,556.9,1723.7,556.9z"/>
	<g id="Group_214" transform="translate(398.478 2601.196)">
		<text transform="matrix(0.9999 -1.193777e-02 1.193777e-02 0.9999 0.7533 -1950.8365)" class="st1 st8 st9">Illustration</text>
	</g>
	<text transform="matrix(1 -5.026527e-03 5.026527e-03 1 1112.8525 1120.3455)" class="st1 st8 st10">Photography</text>
	<g id="Group_216" transform="translate(762.103 2686.603)">
		<g id="Group_215" transform="translate(0 10.725)">
			<text transform="matrix(0.9999 -1.284527e-02 1.284527e-02 0.9999 1.3016 -1908.6185)" class="st0 st8 st11">Storytelling</text>
		</g>
		<text transform="matrix(0.9999 -1.284527e-02 1.284527e-02 0.9999 4.8763 -1908.6187)" class="st1 st8 st11">Storytelling</text>
	</g>
	<g id="Group_217" transform="translate(508.191 2398.992)">
		<text transform="matrix(1 -2.059487e-03 2.059487e-03 1 0.1223 -1958.0137)" class="st0 st8 st12">Graphic Design</text>
	</g>
	<g id="Group_218" transform="translate(556.203 2924.125)">
		<text transform="matrix(1 -2.059487e-03 2.059487e-03 1 0.1357 -1952.1765)" class="st0 st8 st13">Branding</text>
	</g>
	<g id="Group_219" transform="translate(1039.786 2510.349)">
		<text transform="matrix(1 -2.059487e-03 2.059487e-03 1 0.1396 -1949.8716)" class="st0 st8 st14">Typography</text>
	</g>
	<g id="Group_220" transform="translate(325.626 2803.045)">
		<text transform="matrix(1 -2.059487e-03 2.059487e-03 1 0.1165 -1961.4336)" class="st0 st8 st15">Infographic</text>
	</g>
	<text transform="matrix(1 -2.000000e-03 2.000000e-03 1 961.3425 926.9803)" class="st4 st8 st16">Motion Graphic</text>
</g>
</svg>
