<?xml version="1.0" encoding="utf-8"?>
<!-- Generator: Adobe Illustrator 23.0.0, SVG Export Plug-In . SVG Version: 6.00 Build 0)  -->
<svg version="1.1" id="Layer_1" xmlns="http://www.w3.org/2000/svg" xmlns:xlink="http://www.w3.org/1999/xlink" x="0px" y="0px"
	 viewBox="0 0 1920 1420" style="enable-background:new 0 0 1920 1420;" xml:space="preserve">
<style type="text/css">
	.st0{fill:#FFFFFF;}
	.st1{fill:#F3CB60;}
	.st2{fill:none;stroke:#717171;}
	.st3{fill:#508CC1;}
	.st4{fill:#F6F6F6;}
	.st5{fill:#D04A55;}
	.st6{fill:#F1F5F9;}
	.st7{enable-background:new    ;}
	.st8{font-family:'Arciform';}
	.st9{font-size:63px;}
	.st10{font-size:64px;}
	.st11{font-size:49px;}
	.st12{fill:none;stroke:#F3CB60;stroke-width:5;stroke-linecap:round;stroke-linejoin:round;stroke-miterlimit:10;}
</style>
<g>
	<path id="Path_5424" class="st0" d="M1596.9,637.1c12.4-44,16.5-90.8,9.6-139c-24.8-187.1-192.6-319.2-378.4-301.3
		c-61.9-130.7-203.6-213.3-356.3-194C738.4,20.7,632.4,111.5,589.8,231.2c-34.4-6.9-70.2-9.6-107.3-4.1
		c-129.8,17.2-235.8,112.2-266.9,239.4c-6.9,0-13.8,1.4-20.6,1.4C7.8,492.6-125.7,664.6-100.9,851.7
		c24.8,188.5,196.7,320.6,385.2,297.2c16.5-2.8,33-5.5,48.2-11c31.6,132.1,158.2,221.5,295.8,203.6c52.3-6.9,99.1-28.9,137.6-60.5
		c52.3,94.9,159.6,152.7,273.8,139c126.6-16.5,221.5-118.3,236.6-239.4c62.9,41.3,138.5,58.9,213.3,49.5
		c173.4-22,295.8-181.6,272.4-355C1748.2,770.6,1683.6,683.9,1596.9,637.1z"/>
	<text transform="matrix(1 -7.000000e-03 7.000000e-03 1 362.4477 776.5938)" class="st3 st8 st9">ATP SOFTWARE</text>
	<text transform="matrix(1 -7.000000e-03 7.000000e-03 1 370.9184 684.6299)" class="st3 st8 st9">EQ CUP</text>
	<text transform="matrix(1 -7.000000e-03 7.000000e-03 1 369.2284 872.701)" class="st3 st8 st9">EDUVIET GLOBAL</text>
	<text transform="matrix(1 -7.000000e-03 7.000000e-03 1 375.5536 969.8909)" class="st3 st8 st9">POTATO CLOTHING</text>
	<text transform="matrix(1 -7.000000e-03 7.000000e-03 1 222.7416 775.4798)" class="st5 st8 st10">2017</text>
	<text transform="matrix(1 -7.000000e-03 7.000000e-03 1 222.5888 684.244)" class="st5 st8 st10">2016</text>
	<text transform="matrix(1 -7.000000e-03 7.000000e-03 1 225.8368 871.3719)" class="st5 st8 st10">2018</text>
	<text transform="matrix(1 -7.000000e-03 7.000000e-03 1 229.9238 968.3419)" class="st5 st8 st10">2019</text>
	<g id="Group_221" transform="translate(918.548 3743.93)">
		<text transform="matrix(1 0 0 1 30.2184 -2973.8572)" class="st5 st8 st11">Graphic Design</text>
	</g>
	<g id="Group_222" transform="translate(1035.81 3652.694)">
		<text transform="matrix(1 0 0 1 30.2185 -2973.8572)" class="st5 st8 st11">Storyteller</text>
	</g>
	<g id="Group_223" transform="translate(1055.277 3839.844)">
		<text transform="matrix(1 0 0 1 30.2184 -2973.8572)" class="st5 st8 st11">Illustrator</text>
	</g>
	<g id="Group_224" transform="translate(925.979 3936.79)">
		<text transform="matrix(1 0 0 1 30.2185 -2973.8572)" class="st5 st8 st11">Graphic Design</text>
	</g>
	<line id="Line_1" class="st12" x1="589.4" y1="676.1" x2="1037.2" y2="676.1"/>
	<line id="Line_2" class="st12" x1="782.4" y1="771.6" x2="941.6" y2="771.6"/>
	<line id="Line_3" class="st12" x1="846.1" y1="867.2" x2="1075.4" y2="867.2"/>
	<line id="Line_4" class="st12" x1="903.4" y1="965.3" x2="948" y2="965.3"/>
</g>
</svg>
