<?xml version="1.0" encoding="utf-8"?>
<!-- Generator: Adobe Illustrator 23.0.0, SVG Export Plug-In . SVG Version: 6.00 Build 0)  -->
<svg version="1.1" id="Layer_1" xmlns="http://www.w3.org/2000/svg" xmlns:xlink="http://www.w3.org/1999/xlink" x="0px" y="0px"
	 viewBox="0 0 1920 1240" style="enable-background:new 0 0 1920 1240;" xml:space="preserve">
<style type="text/css">
	.st0{fill:#FFFFFF;}
	.st1{fill:#F3CB60;}
	.st2{fill:none;stroke:#717171;}
	.st3{fill:#508CC1;}
	.st4{fill:#F6F6F6;}
	.st5{fill:#D04A55;}
	.st6{fill:#F1F5F9;}
	.st7{enable-background:new    ;}
	.st8{fill:none;stroke:#F3CB60;stroke-width:5;stroke-linecap:round;stroke-linejoin:round;stroke-miterlimit:10;}
	.st9{font-family:'Arciform';}
	.st10{font-size:126.0149px;}
	.st11{font-size:127px;}
	.st12{font-size:125px;}
	.st13{font-size:123px;}
	.st14{font-size:126px;}
</style>
<g>
	<path id="Path_5425" class="st1" d="M1916.1,667.9c1.5-15,3-30,3-45c0-151.5-115.5-277.5-262.5-292.5v-1.5c0-180-147-327-327-327
		c-147,0-270,96-312,229.5c-42-33-94.5-54-151.5-54c-108,0-198,70.5-229.5,168c-36-18-76.5-30-118.5-30c-130.5,0-237,96-255,222
		c-24-10.5-49.5-15-78-15C76.1,522.3-12.5,610.8-12.6,720c0,0.1,0,0.3,0,0.4c0,27,6,54,15,78c-108,16.5-190.5,109.5-190.5,222
		c-0.2,123.2,99.5,223.2,222.7,223.5c0.3,0,0.5,0,0.8,0c60,0,114-24,154.5-61.5c40.5,31.5,91.5,51,147,51
		c70.7,0.2,137.8-31.1,183-85.5c57,48,130.5,78,210,78c64.7,0,127.9-19.3,181.5-55.5c30.7,21.6,67.4,33.1,105,33
		c67.5,0,127.5-36,159-91.5c43.5,79.5,127.5,133.5,225,133.5s181.5-54,223.5-133.5c51,58.5,124.5,96,208.5,96
		c152,0.4,275.6-122.5,276-274.5c0-0.5,0-1,0-1.5C2109.6,808.9,2028.6,703.9,1916.1,667.9z"/>
	<g id="Group_230" transform="matrix(0.966, 0.259, -0.259, 0.966, 104.941, 5035.997)">
		<path id="Path_5428" class="st3" d="M-966-3801.4h-157.9c-15.4-0.2-27.9-12.6-28-28v-157.1c0.2-15.4,12.6-27.9,28-28H-966
			c15.4,0.2,27.9,12.6,28,28v157.9C-938-3813.4-950.8-3801.4-966-3801.4z"/>
		<g id="Group_229" transform="translate(66.361 57.679)">
			<text transform="matrix(0.9999 0 0 0.9999 -1151.9319 -3919.541)" class="st1 st9 st10">Id</text>
		</g>
	</g>
	<g id="Group_226" transform="translate(1242.44 4377.126)">
		<path id="Path_5426" class="st5" d="M112.9-3962.4H-45c-15.4-0.2-27.9-12.6-28-28v-157.9c0.2-15.4,12.6-27.9,28-28h157.9
			c15.4,0.2,27.9,12.6,28,28v157.9c0.1,15.4-12.3,27.9-27.7,28C113.1-3962.4,113-3962.4,112.9-3962.4z"/>
		<g id="Group_225" transform="translate(49.753 53.917)">
			<text transform="matrix(1 0 0 1 -73.0003 -4081.3972)" class="st1 st9 st11">Ps</text>
		</g>
	</g>
	<g id="Group_228" transform="translate(1529.414 4649.126)">
		<path id="Path_5427" class="st5" d="M112.9-3962.4H-45c-15.4-0.2-27.9-12.6-28-28v-157.9c0.2-15.4,12.6-27.9,28-28h157.9
			c15.4,0.2,27.9,12.6,28,28v157.9C140.8-3975.1,128.3-3962.6,112.9-3962.4z"/>
		<g id="Group_227" transform="translate(64.395 47.07)">
			<text transform="matrix(1 0 0 1 -73.0001 -4081.397)" class="st1 st9 st11">Ai</text>
		</g>
	</g>
	<g id="Group_232" transform="translate(607.474 4616.885) rotate(-7)">
		<path id="Path_5429" class="st3" d="M622.4-3941H464.6c-15.4-0.2-27.9-12.6-28-28l0-157.1c0.2-15.4,12.6-27.9,28-28h157.9
			c15.4,0.2,27.9,12.6,28,28l0,157.9C650.5-3953,637.7-3941,622.4-3941z"/>
		<g id="Group_231" transform="translate(43.998 46.198)">
			<text transform="matrix(1 0 0 1 436.5174 -4060.1641)" class="st1 st9 st12">Ae</text>
		</g>
	</g>
	<g id="Group_234" transform="translate(475.259 5015.885) rotate(-3)">
		<path id="Path_5430" class="st4" d="M331.6-3960.5H173.7c-15.4-0.2-27.9-12.6-28-28v-157.9c0.2-15.4,12.6-27.9,28-28h157.9
			c15.4,0.2,27.9,12.6,28,28v157.9C359.4-3973.2,347-3960.7,331.6-3960.5z"/>
		<g id="Group_233" transform="translate(52.02 54.403)">
			<text transform="matrix(1 0 0 1 145.6758 -4082.4919)" class="st1 st9 st13">Lr</text>
		</g>
	</g>
	<g id="Group_236" transform="translate(1571.44 5010.139)">
		<path id="Path_5431" class="st4" d="M112.9-3962.4H-45c-15.4-0.2-27.9-12.6-28-28v-157.9c0.2-15.4,12.6-27.9,28-28h157.9
			c15.4,0.2,27.9,12.6,28,28v157.9c0.1,15.4-12.3,27.9-27.7,28C113.1-3962.4,113-3962.4,112.9-3962.4z"/>
		<g id="Group_235" transform="translate(52.539 51.604)">
			<text transform="matrix(1 0 0 1 -73.0002 -4081.397)" class="st1 st9 st14">Pr</text>
		</g>
	</g>
	<g id="Group_238" transform="translate(1020.665 4649.139)">
		<path id="Path_5432" class="st4" d="M112.9-3962.4H-45c-15.4-0.2-27.9-12.6-28-28v-157.9c0.2-15.4,12.6-27.9,28-28h157.9
			c15.4,0.2,27.9,12.6,28,28v157.9C140.8-3975.1,128.3-3962.6,112.9-3962.4z"/>
		<g id="Group_237" transform="translate(24.499 53.956)">
			<text transform="matrix(1 0 0 1 -73.0002 -4081.3967)" class="st1 st9 st11">Dw</text>
		</g>
	</g>
	<g id="Group_240" transform="translate(1237.44 5008.054)">
		<path id="Path_5433" class="st3" d="M112.9-3963.2H-45c-15.4-0.2-27.9-12.6-28-28v-157.1c0.2-15.4,12.6-27.9,28-28h157.9
			c15.4,0.2,27.9,12.6,28,28v157.9C141-3975.3,128.9-3963.2,112.9-3963.2z"/>
		<g id="Group_239" transform="translate(27.685 56.479)">
			<text transform="matrix(1 0 0 1 -73.0002 -4081.397)" class="st1 st9 st11">Xd</text>
		</g>
	</g>
	<g id="Group_243" transform="matrix(0.978, -0.208, 0.208, 0.978, 245.806, 4800.706)">
		<path id="Path_5434" class="st5" d="M983.4-3886.8H825.5c-15.4-0.2-27.9-12.6-28-28v-157.9c0.2-15.4,12.6-27.9,28-28h157.9
			c15.4,0.2,27.9,12.6,28,28v157.9C1011.3-3899.4,998.8-3887,983.4-3886.8z"/>
		<g id="Group_242" transform="translate(44.875 45.676)">
			<g id="Group_241">
				<path id="Path_5435" class="st1" d="M923.3-4078.3c-3.2-3.2-7.5-4.9-12-4.8h-15.2l-3.2-9.6c-0.8-2.4-2.4-4-4.8-5.6
					c-2.1-1.5-4.6-2.3-7.2-2.4h-35.3c-2.6,0.1-5.1,0.9-7.2,2.4c-2.4,1.6-4,3.2-4.8,5.6l-3.2,9.6h-16c-4.5-0.1-8.8,1.6-12,4.8
					c-3.1,3.6-4.8,8.1-4.8,12.8v61.7c-0.2,9.1,7,16.6,16,16.8c0.3,0,0.5,0,0.8,0h96.2c9.1,0.2,16.6-7,16.8-16c0-0.3,0-0.5,0-0.8
					v-61.7C928.9-4070.3,927.3-4074.3,923.3-4078.3L923.3-4078.3z M884.8-4013.4c-11.8,11.9-31.1,12-43.1,0.2
					c-5.8-5.8-9.1-13.6-9-21.8c-0.2-8.1,3-15.9,8.8-21.6c11.8-11.9,31.1-12,43.1-0.2c5.8,5.8,9.1,13.6,9,21.8
					C893.8-4026.9,890.6-4019.1,884.8-4013.4z"/>
				<path id="Path_5436" class="st1" d="M863.2-4055.1c-5.6,0-10.4,1.6-13.6,5.6c-3.6,3.6-5.7,8.5-5.6,13.6c0,5.6,1.6,10.4,5.6,13.6
					c3.6,3.6,8.5,5.7,13.6,5.6c5.6,0,10.4-1.6,13.6-5.6c3.6-3.6,5.7-8.5,5.6-13.6c0-5.6-1.6-10.4-5.6-13.6
					C872.8-4052.7,868-4055.1,863.2-4055.1z"/>
			</g>
		</g>
	</g>
	<g id="Group_245" transform="translate(861.665 4944.126)">
		<path id="Path_5437" class="st5" d="M112.9-3962.4H-45c-15.4-0.2-27.9-12.6-28-28v-157.9c0.2-15.4,12.6-27.9,28-28h157.9
			c15.4,0.2,27.9,12.6,28,28v157.9C140.8-3975.1,128.3-3962.6,112.9-3962.4z"/>
		<g id="Group_244" transform="translate(41.67 39.266)">
			<path id="Path_5438" class="st1" d="M15.1-4146.7c-0.8-0.8-1.6-0.8-1.6,0l-24,24l10.4,10.4l24-24c0.8-0.8,0.8-1.6,0-1.6
				L15.1-4146.7z"/>
			<path id="Path_5439" class="st1" d="M-35.3-4081h88.1v-51.3H30.4c0,0.8-0.8,0.8-0.8,1.6l-26.4,26.4l0,0l-16.8,4h-1.6
				c-1.5,0-2.9-0.6-4-1.6c-1.6-1.6-2.4-4-1.6-5.6l4-16.8l0,0l7.2-7.2h-24.8v50.5H-35.3z"/>
			<path id="Path_5440" class="st1" d="M-7.3-4109.1l-6.4-6.4l-1.6,8L-7.3-4109.1z"/>
			<path id="Path_5441" class="st1" d="M-42.5-4077.8v-57.7c-0.1-2.1,1.5-3.9,3.5-4c0.2,0,0.3,0,0.5,0h35.3l11.2-12
				c1.5-1.5,3.5-2.3,5.6-2.4h-20v-18.4c0-2.2-1.9-4-4.1-3.9c-2.2,0-3.9,1.8-3.9,3.9v18.4h-49.7c-4.9,0-8.8,4-8.8,8.8v77.7
				c0,4.9,4,8.8,8.8,8.8H43.2c4.9,0,8.8-4,8.8-8.8v-6.4h-91.4C-40.9-4073.8-42.5-4075.4-42.5-4077.8L-42.5-4077.8z M-49.8-4110.7
				c0,2.2-1.9,4-4.1,3.9c-2.2,0-3.9-1.8-3.9-3.9v-4.8c0-2.2,1.9-4,4.1-3.9c2.2,0,3.9,1.8,3.9,3.9V-4110.7z M-49.8-4130.7
				c0,2.2-1.7,4-3.9,4.1c-2.2,0-4-1.7-4.1-3.9c0,0,0-0.1,0-0.1v-4.8c0-2.2,1.7-4,3.9-4.1c2.2,0,4,1.7,4.1,3.9c0,0,0,0.1,0,0.1
				V-4130.7z"/>
			<path id="Path_5442" class="st1" d="M28.8-4142.7c0.8,0.8,1.6,2.4,2.4,3.2h21.6v-5.6c0-4.9-4-8.8-8.8-8.8H14.3
				c2.1-0.1,4.2,0.8,5.6,2.4L28.8-4142.7z"/>
		</g>
	</g>
</g>
</svg>
