<?xml version="1.0" encoding="utf-8"?>
<!-- Generator: Adobe Illustrator 24.0.1, SVG Export Plug-In . SVG Version: 6.00 Build 0)  -->
<svg version="1.1" xmlns="http://www.w3.org/2000/svg" xmlns:xlink="http://www.w3.org/1999/xlink" x="0px" y="0px"
	 viewBox="0 0 64 63" style="enable-background:new 0 0 64 63;" xml:space="preserve">
<style type="text/css">
	.st0{clip-path:url(#SVGID_2_);}
	.st1{clip-path:url(#SVGID_4_);}
	.st2{fill:#FFFFFF;}
	.st3{fill:#D04954;}
	.st4{fill:#F2CA60;}
	.st5{fill:none;stroke:#707070;}
	.st6{fill:#4F8BC0;}
	.st7{fill:#F6F6F6;}
	.st8{fill:#F0F5F9;}
	.st9{font-family:'ArialMT';}
	.st10{font-size:105px;}
	.st11{fill:none;stroke:#F2CA60;stroke-width:5;stroke-linecap:round;stroke-linejoin:round;stroke-miterlimit:10;}
	.st12{clip-path:url(#SVGID_6_);}
	.st13{clip-path:url(#SVGID_8_);}
</style>
<g id="Layer_1">
</g>
<g id="Layer_3">
</g>
<g id="Layer_2">
</g>
<g id="Layer_4">
	<g>
		<defs>
			<rect id="SVGID_1_" x="-1317.09" y="3020.05" width="1920" height="681.5"/>
		</defs>
		<clipPath id="SVGID_2_">
			<use xlink:href="#SVGID_1_"  style="overflow:visible;"/>
		</clipPath>
		<g class="st0">
			<defs>
				<rect id="SVGID_3_" x="-1317.09" y="-3129.45" width="1920" height="6831"/>
			</defs>
			<clipPath id="SVGID_4_">
				<use xlink:href="#SVGID_3_"  style="overflow:visible;"/>
			</clipPath>
			<g id="Web_1920_3" class="st1">
				<rect x="-1317.09" y="-3129.45" class="st2" width="1920" height="6831"/>
				<rect id="Rectangle_44" x="-1317.09" y="-3129.45" class="st3" width="1919.8" height="6688.5"/>
				<path id="Path_5423" class="st4" d="M406.57-554.63c-15.57,0-29.72,1.41-43.87,2.83C345.72-721.61,202.79-853.22,28.73-853.22
					c-46.7-150.01-185.39-257.56-349.54-257.56c-148.59,0-274.54,87.74-332.56,215.1c-32.55-7.08-65.1-11.32-99.06-11.32
					c-246.24,0-445.78,199.54-445.78,445.78c-0.05,28.05,2.8,56.03,8.49,83.49c-80.99,67.55-127.68,167.67-127.37,273.13
					c0,193.88,158.5,352.37,355.21,352.37c89.15,0,169.82-32.55,233.5-87.74c41.36,22.14,87.52,33.8,134.44,33.96
					c69.34,0,131.61-24.06,181.14-65.1c69.34,60.85,158.5,97.65,257.56,97.65c106.14,0,203.78-42.45,273.13-111.8
					c72.17,76.42,174.06,124.53,287.28,124.53c219.35,0,397.66-178.31,397.66-397.66C804.23-377.73,625.92-554.63,406.57-554.63z"/>
				<text transform="matrix(1 -5.026527e-03 5.026527e-03 1 -204.2425 8.8394)" class="st3 st9 st10">Photography</text>
				<path id="Path_5424" class="st2" d="M249.59,518.5c12.38-44.03,16.51-90.81,9.63-138.96C234.45,192.42,66.6,60.34-119.15,78.22
					c-61.91-130.71-203.63-213.26-356.35-194C-608.95-97.89-714.9-7.08-757.55,112.62c-34.4-6.88-70.17-9.63-107.32-4.13
					c-129.81,17.16-235.79,112.22-266.92,239.4c-6.88,0-13.76,1.38-20.64,1.38c-187.12,24.77-320.58,196.75-295.81,383.87
					c24.77,188.49,196.75,320.58,385.24,297.19c16.51-2.75,33.02-5.5,48.16-11.01c31.64,132.08,158.22,221.51,295.81,203.63
					c52.28-6.88,99.06-28.89,137.59-60.54c52.28,94.93,159.6,152.72,273.8,138.96c126.58-16.51,221.52-118.32,236.65-239.4
					c62.95,41.31,138.55,58.87,213.26,49.53c173.36-22.01,295.81-181.61,272.42-354.97C400.93,651.96,336.27,565.28,249.59,518.5z"
					/>
			</g>
		</g>
	</g>
	<g>
		<defs>
			<rect id="SVGID_5_" x="-723.24" y="289.47" width="1920" height="681.5"/>
		</defs>
		<clipPath id="SVGID_6_">
			<use xlink:href="#SVGID_5_"  style="overflow:visible;"/>
		</clipPath>
		<g class="st12">
			<defs>
				<rect id="SVGID_7_" x="-723.24" y="-5860.03" width="1920" height="6831"/>
			</defs>
			<clipPath id="SVGID_8_">
				<use xlink:href="#SVGID_7_"  style="overflow:visible;"/>
			</clipPath>
			<g id="Web_1920_3_1_" class="st13">
				<rect x="-723.24" y="-5860.03" class="st2" width="1920" height="6831"/>
				<g id="Group_256_1_" transform="translate(581.073 5860.085)">
					<path id="Path_5519_1_" class="st6" d="M-509.53-5795.61L-509.53-5795.61c0-0.58,0-0.58,0.58-1.17
						c0.49-1.77-0.55-3.6-2.32-4.09c-0.01,0-0.01,0-0.02,0l-8.76-2.92l0.58-1.75c1.17-4.09-1.17-8.18-5.26-9.93
						c-4.09-1.17-8.18,1.17-9.93,5.26l-0.58,1.75l0,0l-5.84-1.75l0.58-1.75c1.17-4.09-1.17-8.18-5.26-9.93
						c-4.09-1.17-8.18,1.17-9.93,5.26l-0.58,1.75l-6.43-1.75l0.58-1.75c1.17-4.09-1.17-8.18-5.26-9.93
						c-4.09-1.17-8.18,1.17-9.93,5.26l-0.58,1.75l-6.43-1.75l0.58-1.75c1.17-4.09-1.17-8.18-5.26-9.93
						c-4.09-1.17-8.18,1.17-9.93,5.26l-0.58,1.75l-6.43-1.75l0.58-1.75c1.17-4.09-1.17-8.18-5.26-9.93
						c-4.09-1.17-8.18,1.17-9.93,5.26l-0.58,1.75l0,0l-8.76-2.92c-1.21-0.6-2.68-0.11-3.29,1.1c-0.1,0.21-0.18,0.43-0.22,0.66
						c-0.58,0.58-0.58,0.58-0.58,1.17l-20.45,67.19l-15.77-38.56l-1.75-1.75c-0.67-0.58-1.67-0.58-2.34,0l-20.45,8.18
						c-1.75,0.58-2.34,2.34-1.75,4.09l29.21,71.28l-15.19,50.83c-0.49,1.77,0.55,3.6,2.32,4.09c0.01,0,0.01,0,0.02,0l117.43,35.06
						c1.77,0.49,3.6-0.55,4.09-2.32c0-0.01,0-0.01,0-0.02L-509.53-5795.61z M-528.81-5807.29c0-0.58,1.17-1.17,1.75-1.17
						c0.59,0,1.17,1.17,1.17,1.75l-2.92,9.35c0,0.58-1.17,1.17-1.75,1.17c-0.58,0-1.17-1.17-1.17-1.75L-528.81-5807.29z
						 M-549.85-5813.72c0-0.58,1.17-1.17,1.75-1.17c0.58,0,1.17,1.17,1.17,1.75l-2.92,9.35c0,0.58-1.17,1.17-1.75,1.17
						c-0.59,0-1.17-1.17-1.17-1.75L-549.85-5813.72z M-570.88-5820.15c0-0.58,1.17-1.17,1.75-1.17c0.59,0,1.17,1.17,1.17,1.75
						l-2.92,9.35c0,0.58-1.17,1.17-1.75,1.17c-0.58,0-1.17-1.17-1.17-1.75L-570.88-5820.15z M-591.91-5826.57
						c0-0.58,1.17-1.17,1.75-1.17s1.17,1.17,1.17,1.75l-2.92,9.35c0,0.58-1.17,1.17-1.75,1.17c-0.58,0-1.17-1.17-1.17-1.75
						L-591.91-5826.57z M-612.94-5833c0-0.58,1.17-1.17,1.75-1.17s1.17,1.17,1.17,1.75l-2.92,9.35c0,0.58-1.17,1.17-1.75,1.17
						c-0.59,0-1.17-1.17-1.17-1.75L-612.94-5833z M-621.12-5827.16l-0.58,1.75c-1.17,4.09,1.17,8.18,5.26,9.93
						c4.09,1.17,8.18-1.17,9.93-5.26l0.58-1.75l6.43,1.75l-0.58,1.75c-1.17,4.09,1.17,8.18,5.26,9.93c4.09,1.17,8.18-1.17,9.93-5.26
						l0.58-1.75l6.43,1.75l-0.58,1.75c-1.17,4.09,1.17,8.18,5.26,9.93c4.09,1.17,8.18-1.17,9.93-5.26l0.58-1.75l6.43,1.75
						l-0.58,1.75c-1.17,4.09,1.17,8.18,5.26,9.93c4.09,1.17,8.18-1.17,9.93-5.26l0.58-1.75l5.84,1.75l0,0l-0.58,1.75
						c-1.17,4.09,1.17,8.18,5.26,9.93c4.09,1.17,8.18-1.17,9.93-5.26l0.58-1.75l5.84,1.75l-3.51,12.27l-111.59-33.3l3.51-12.27
						L-621.12-5827.16L-621.12-5827.16z M-626.38-5667.66v4.09l-2.92-2.92L-626.38-5667.66z M-631.05-5684.6l4.09,0.58v9.93
						l-7.6,2.92l-6.43-7.01l-0.59-1.17l4.09,2.34c0.58,0.58,1.75,0.58,2.92,0c1.17-0.58,1.75-1.17,1.75-1.75L-631.05-5684.6z
						 M-632.81-5691.61c-1.75,0-2.92,0.58-3.51,2.34l-1.17,5.26l-4.67-2.92c-0.69-0.46-1.51-0.67-2.34-0.58l-38.56-94.65l14.61-5.84
						l39.15,96.4L-632.81-5691.61z M-673.71-5799.11l2.34,5.84l-14.61,5.84l-2.34-5.84L-673.71-5799.11z M-662.61-5713.23
						l13.44,33.89l1.75,4.67c0,0.58,0.58,0.58,0.58,1.17l8.76,8.76l0,0l4.67,4.67l-41.48-12.27L-662.61-5713.23z M-620.54-5657.14
						v-15.19l0,0v-13.44l-1.17-2.92l0,0l-27.46-67.77l16.36-54.34l111.59,33.3l-41.48,137.89L-620.54-5657.14z"/>
				</g>
			</g>
		</g>
	</g>
	<g id="Group_303" transform="translate(287.673 0)">
		<path id="Path_5595" class="st3" d="M-232.28-0.44h-46.63c-4.71,0-8.52,3.81-8.52,8.52c0,0,0,0,0,0.01V54.7
			c0,4.71,3.81,8.52,8.52,8.52c0,0,0,0,0.01,0h46.62c4.71,0,8.52-3.81,8.52-8.52c0,0,0,0,0-0.01V8.09c0.01-4.69-3.78-8.51-8.48-8.52
			C-232.26-0.44-232.27-0.44-232.28-0.44z M-252.39,20.19h12.82v3.2h-12.82V20.19z M-257.2,36.21c0,3.53-2.87,6.4-6.4,6.4h-9.62
			V20.19h9.62c3.53,0,6.4,2.87,6.4,6.4c0,1.85-0.81,3.61-2.22,4.81C-258.01,32.6-257.2,34.36-257.2,36.21L-257.2,36.21z
			 M-237.96,36.21h-12.54c0.88,2.5,3.62,3.82,6.12,2.94c1.08-0.38,2-1.14,2.57-2.14l2.77,1.61c-2.22,3.83-7.12,5.14-10.95,2.92
			c-3.83-2.22-5.14-7.12-2.92-10.95s7.12-5.14,10.95-2.92c2.47,1.43,4,4.07,4,6.93L-237.96,36.21z"/>
		<path id="Path_5596" class="st3" d="M-263.6,39.41h-6.4v-6.4h6.4c1.77,0,3.2,1.43,3.2,3.2C-260.4,37.97-261.83,39.41-263.6,39.41
			C-263.6,39.41-263.6,39.41-263.6,39.41z M-263.6,29.79h-6.4v-6.4h6.4c1.77,0,3.2,1.43,3.2,3.2
			C-260.4,28.36-261.83,29.79-263.6,29.79C-263.6,29.79-263.6,29.79-263.6,29.79z"/>
		<path id="Path_5597" class="st3" d="M-263.6,23.39h-6.4v6.4h6.4c1.77,0,3.2-1.43,3.2-3.2C-260.4,24.83-261.83,23.39-263.6,23.39
			C-263.6,23.39-263.6,23.39-263.6,23.39z"/>
		<path id="Path_5598" class="st3" d="M-263.6,33.01h-6.4v6.4h6.4c1.77,0,3.2-1.43,3.2-3.2C-260.4,34.45-261.83,33.01-263.6,33.01
			C-263.6,33.01-263.6,33.01-263.6,33.01z"/>
		<path id="Path_5599" class="st3" d="M-250.52,33.01c0.88-2.5,3.62-3.81,6.12-2.93c1.37,0.48,2.45,1.56,2.93,2.93H-250.52z"/>
		<path id="Path_5600" class="st3" d="M-245.97,29.79c-2.03,0-3.84,1.28-4.53,3.2h9.07C-242.12,31.08-243.94,29.8-245.97,29.79z"/>
	</g>
</g>
</svg>
