<?xml version="1.0" encoding="utf-8"?>
<!-- Generator: Adobe Illustrator 23.0.1, SVG Export Plug-In . SVG Version: 6.00 Build 0)  -->
<svg version="1.1" id="Layer_1" xmlns="http://www.w3.org/2000/svg" xmlns:xlink="http://www.w3.org/1999/xlink" x="0px" y="0px"
	 viewBox="0 0 780 500" style="enable-background:new 0 0 780 500;" xml:space="preserve">
<style type="text/css">
	.st0{clip-path:url(#SVGID_2_);}
	.st1{clip-path:url(#SVGID_4_);}
	.st2{fill:#FFFFFF;}
	.st3{fill:#D04954;}
	.st4{fill:#F2CA60;}
	.st5{fill:none;stroke:#707070;}
	.st6{fill:#4F8BC0;}
	.st7{fill:#F6F6F6;}
	.st8{clip-path:url(#SVGID_2_);fill:none;}
	.st9{clip-path:url(#SVGID_6_);}
	.st10{clip-path:url(#SVGID_8_);}
	.st11{clip-path:url(#SVGID_6_);fill:none;}
</style>
<g>
	<defs>
		<rect id="SVGID_5_" x="-0.46" y="0.26" width="780" height="500"/>
	</defs>
	<clipPath id="SVGID_2_">
		<use xlink:href="#SVGID_5_"  style="overflow:visible;"/>
	</clipPath>
	<g class="st0">
		<defs>
			<rect id="SVGID_7_" x="-568" y="-480" width="1920" height="3133"/>
		</defs>
		<clipPath id="SVGID_4_">
			<use xlink:href="#SVGID_7_"  style="overflow:visible;"/>
		</clipPath>
		<g class="st1">
			<path class="st2" d="M571.25,239.79c-4.69,0-8.61,3.01-10.08,7.14h20.23C579.93,242.03,575.45,239.79,571.25,239.79z"/>
			<path class="st2" d="M450.65,239.79c-5.88,0-10.64,4.76-10.64,10.64c0,5.81,4.76,10.64,10.64,10.64
				c5.88,0,10.64-4.83,10.64-10.64C461.29,244.55,456.53,239.79,450.65,239.79z"/>
			<path class="st2" d="M343.2,239.86c-5.88,0-10.85,4.97-10.85,10.85s4.97,10.36,10.85,10.36c5.88,0,10.36-4.48,10.36-10.36
				S349.08,239.86,343.2,239.86z"/>
			<path class="st2" d="M633.06,239.79c-4.69,0-8.61,3.01-10.08,7.14h20.23C641.74,242.03,637.26,239.79,633.06,239.79z"/>
			<path class="st2" d="M133.83,233.14c-0.07-3.92-3.29-6.93-7.28-6.93h-9.52v14.07h9.52C130.54,240.28,133.76,237.13,133.83,233.14
				z"/>
			<path class="st2" d="M648.55,175.36c-6.59,0.13-13.16,0.7-19.67,1.71c-6.14-60.85-60.44-105.2-121.29-99.07
				c-19.87,2-38.84,9.35-54.88,21.25c-26.6-26.24-68.37-29.14-98.34-6.84c-15.81-9.75-34.02-14.93-52.59-14.97
				c-40.18-0.06-76.45,24.07-91.93,61.14c-15.46-9.42-33.2-14.44-51.31-14.54c-54.3,0-98.35,44.47-98.35,98.77
				c0,4.28,0.43,8.98,0.85,13.26c-40.79,25.31-53.34,78.9-28.02,119.68c24.16,38.94,74.41,52.43,114.82,30.83
				c19.84,35.45,64.67,48.1,100.12,28.25c8.19-4.58,15.42-10.69,21.31-17.99c16.72,10.75,36.14,16.53,56.02,16.68
				c29.94-0.05,58.36-13.17,77.82-35.92c20.52,21.38,49.17,35.06,80.81,35.06c32.56,0.06,63.5-14.16,84.66-38.91
				c20.52,20.1,48.75,32.07,79.96,32.07c63.74-0.04,115.41-51.7,115.44-115.45C764,227.09,712.26,175.36,648.55,175.36z
				 M132.15,268.07c-0.21,0,1.26,0-18.41,0c-0.07,0-0.07,0-0.14,0h-0.07c-1.96,0-3.5-1.54-3.5-3.5v-41.86c0-1.89,1.61-3.5,3.57-3.5
				c-0.01,0-0.02,0-0.02,0c0,0,0.02,0,0.02,0c0,0,0,0,0,0c0.19,0,1.85,0,13.51,0c7.35,0.42,13.65,6.3,13.65,14
				c-0.07,3.29-1.19,6.3-3.08,8.68c4.55,2.38,7.56,7.21,7.56,12.39C145.17,261.63,139.43,267.51,132.15,268.07z M177.58,253.93V254
				c-0.07,7.77-6.37,14.07-14.21,14.07c-7.77,0-14.07-6.3-14.14-14.07v-0.07v-17.57c0-1.89,1.54-3.43,3.43-3.43
				c1.96,0,3.5,1.54,3.5,3.43v17.5c0,3.99,3.22,7.28,7.21,7.28c4.06,0,7.28-3.29,7.28-7.28v-17.5c0-1.89,1.54-3.43,3.5-3.43
				c1.89,0,3.43,1.54,3.43,3.43V253.93z M202.22,239.86h-4.97v24.71c0,1.89-1.54,3.5-3.5,3.5c-1.89,0-3.43-1.61-3.43-3.5v-24.71
				h-5.04c-1.89,0-3.43-1.61-3.43-3.5c0-1.89,1.54-3.43,3.43-3.43h5.04v-14c0-1.89,1.54-3.43,3.43-3.43c1.96,0,3.5,1.54,3.5,3.43v14
				h4.97c1.96,0,3.5,1.54,3.5,3.43C205.72,238.25,204.18,239.86,202.22,239.86z M236.87,264.57c0,1.96-1.54,3.5-3.43,3.5
				c-1.96,0-3.5-1.54-3.5-3.5v-42.28c0-1.89,1.54-3.43,3.5-3.43c1.89,0,3.43,1.54,3.43,3.43V264.57z M246.81,229.92
				c0,1.96-1.26,3.43-3.22,3.43c-1.89,0-3.15-1.54-3.15-3.5v-7.7c0-1.89,1.33-3.5,3.15-3.5c1.96,0.07,3.22,1.68,3.22,3.57V229.92z
				 M299.94,247.63v17.01c0,1.96-1.61,3.5-3.5,3.5c-1.89,0-3.43-1.54-3.43-3.5v-17.01c0-0.14,0-0.21,0-0.35c0-0.07,0-0.14,0-0.28
				c0-3.92-3.22-7.07-7.14-7.07c-3.92,0-7.14,3.15-7.14,7.07v17.64c0,1.96-1.54,3.5-3.43,3.5s-3.5-1.54-3.5-3.5V247
				c0-3.92-3.15-7.07-7.07-7.07s-7.14,3.15-7.14,7.07v17.64c0,1.96-1.54,3.5-3.43,3.5c-1.96,0-3.5-1.54-3.5-3.5V247
				c0-7.7,6.3-14,14.07-14c4.2,0,7.98,1.82,10.57,4.83c2.59-3.01,6.37-4.83,10.57-4.83c7.77,0,14.07,6.3,14.07,14
				c0,0.14,0,0.21-0.07,0.28C299.94,247.42,299.94,247.49,299.94,247.63z M360.42,264.43c0,2.03-1.47,3.5-3.5,3.5
				c-1.4,0-3.36-1.47-3.36-3.5c-3.01,2.52-6.37,3.5-10.36,3.5c-9.87,0-17.71-7.35-17.71-17.22S333.33,233,343.2,233
				s17.22,7.84,17.22,17.71V264.43z M396.12,268.07c-4.97,0-8.96-3.57-10.29-7.63c-0.63-1.82,0.84-3.71,2.66-4.13
				c1.89-0.35,3.22,0.98,4.13,2.73c0.98,1.82,1.82,2.1,3.5,2.1c1.96,0,3.57-1.61,3.57-3.64c0-1.96-1.61-3.57-3.57-3.57
				c-2.8,0-5.46-1.12-7.42-3.08c-2.03-1.96-3.08-4.62-3.08-7.42c0-5.81,4.69-10.5,10.5-10.5c4.9,0,9.38,3.36,10.08,7.28
				c0.35,1.89-0.77,3.78-2.66,4.13c-1.89,0.42-3.5-0.84-4.13-2.59c-0.42-1.12-1.61-1.89-3.29-1.89c-1.96,0-3.57,1.61-3.57,3.57
				c0,1.96,1.61,3.57,3.57,3.57c2.8,0,5.46,1.12,7.42,3.08c2.03,2.03,3.08,4.62,3.08,7.42
				C406.62,263.31,401.93,268.07,396.12,268.07z M429.72,239.86h-4.97v24.71c0,1.89-1.54,3.5-3.5,3.5c-1.89,0-3.43-1.61-3.43-3.5
				v-24.71h-5.04c-1.89,0-3.43-1.61-3.43-3.5c0-1.89,1.54-3.43,3.43-3.43h5.04v-14c0-1.89,1.54-3.43,3.43-3.43
				c1.96,0,3.5,1.54,3.5,3.43v14h4.97c1.96,0,3.5,1.54,3.5,3.43C433.22,238.25,431.68,239.86,429.72,239.86z M450.65,268
				c-9.66,0-17.57-7.91-17.57-17.57c0-9.73,7.91-17.57,17.57-17.57c9.73,0,17.57,7.84,17.57,17.57
				C468.22,260.09,460.38,268,450.65,268z M489.91,239.86c-5.88,0-10.64,4.76-10.64,10.64v14.07c0,1.89-1.54,3.5-3.43,3.5
				c-1.96,0-3.5-1.61-3.5-3.5V250.5c0-9.73,7.91-17.57,17.57-17.57c1.96,0,3.5,1.54,3.5,3.43
				C493.42,238.25,491.88,239.86,489.91,239.86z M525.75,271.08c0,7.91-6.51,14.42-14.49,14.42c-5.53,0-10.5-3.15-12.95-8.12
				c-0.84-1.68-0.14-3.78,1.61-4.62c1.68-0.84,3.78-0.07,4.55,1.61c1.33,2.59,3.92,4.2,6.79,4.2c4.2,0,7.56-3.36,7.56-7.49v-5.04
				c-2.1,1.26-4.55,1.96-7.21,1.96c-7.7,0-14-6.23-14.07-13.93c0-0.07,0-0.07,0-0.07v-17.43c0-1.89,1.54-3.43,3.43-3.43
				c1.89,0,3.43,1.54,3.43,3.43v17.36c0,3.99,3.29,7.21,7.21,7.21c3.99,0,7.21-3.22,7.21-7.21v-17.36c0-1.89,1.54-3.43,3.43-3.43
				c1.96,0,3.5,1.54,3.5,3.43V271.08z M550.32,239.86h-4.97v24.71c0,1.89-1.54,3.5-3.5,3.5c-1.89,0-3.43-1.61-3.43-3.5v-24.71h-5.04
				c-1.89,0-3.43-1.61-3.43-3.5c0-1.89,1.54-3.43,3.43-3.43h5.04v-14c0-1.89,1.54-3.43,3.43-3.43c1.96,0,3.5,1.54,3.5,3.43v14h4.97
				c1.96,0,3.5,1.54,3.5,3.43C553.82,238.25,552.28,239.86,550.32,239.86z M585.32,253.86h-24.15c1.47,4.2,5.39,7.21,10.08,7.21
				c1.61,0,4.48-0.14,7.84-2.31c1.61-1.05,3.78-0.07,4.62,1.61c0.84,1.75-0.07,3.57-1.68,4.62c-4.62,3.08-8.19,3.01-10.78,3.01
				c-9.73,0-17.57-7.91-17.57-17.57c0-9.73,7.84-17.57,17.57-17.57c8.47,0,17.57,6.16,17.57,17.57
				C588.82,252.32,587.28,253.86,585.32,253.86z M600.02,264.57c0,1.96-1.54,3.5-3.43,3.5c-1.96,0-3.5-1.54-3.5-3.5V219
				c0-1.89,1.54-3.43,3.5-3.43c1.89,0,3.43,1.54,3.43,3.43V264.57z M611.29,264.57c0,1.96-1.54,3.5-3.43,3.5
				c-1.96,0-3.5-1.54-3.5-3.5V219c0-1.89,1.54-3.43,3.5-3.43c1.89,0,3.43,1.54,3.43,3.43V264.57z M647.13,253.86h-24.15
				c1.47,4.2,5.39,7.21,10.08,7.21c1.61,0,4.48-0.14,7.84-2.31c1.61-1.05,3.78-0.07,4.62,1.61c0.84,1.75-0.07,3.57-1.68,4.62
				c-4.62,3.08-8.19,3.01-10.78,3.01c-9.73,0-17.57-7.91-17.57-17.57c0-9.73,7.84-17.57,17.57-17.57c8.47,0,17.57,6.16,17.57,17.57
				C650.63,252.32,649.09,253.86,647.13,253.86z M672.4,239.86c-5.88,0-10.64,4.76-10.64,10.64v14.07c0,1.89-1.54,3.5-3.43,3.5
				c-1.96,0-3.5-1.61-3.5-3.5V250.5c0-9.73,7.91-17.57,17.57-17.57c1.96,0,3.5,1.54,3.5,3.43
				C675.9,238.25,674.36,239.86,672.4,239.86z"/>
			<path class="st2" d="M131.31,247.28h-14.28v13.79h14.63c3.43,0,6.65-3.01,6.65-6.79C138.31,250.78,135.16,247.35,131.31,247.28z"
				/>
		</g>
	</g>
	<rect x="-567.6" y="0" class="st8" width="1919.19" height="1810.63"/>
</g>
</svg>
