<?xml version="1.0" encoding="utf-8"?>
<!-- Generator: Adobe Illustrator 24.0.1, SVG Export Plug-In . SVG Version: 6.00 Build 0)  -->
<svg version="1.1" xmlns="http://www.w3.org/2000/svg" xmlns:xlink="http://www.w3.org/1999/xlink" x="0px" y="0px"
	 viewBox="0 0 64 63" style="enable-background:new 0 0 64 63;" xml:space="preserve">
<style type="text/css">
	.st0{clip-path:url(#SVGID_2_);}
	.st1{clip-path:url(#SVGID_4_);}
	.st2{fill:#FFFFFF;}
	.st3{fill:#D04954;}
	.st4{fill:#F2CA60;}
	.st5{fill:none;stroke:#707070;}
	.st6{fill:#4F8BC0;}
	.st7{fill:#F6F6F6;}
	.st8{fill:#F0F5F9;}
	.st9{font-family:'ArialMT';}
	.st10{font-size:105px;}
	.st11{fill:none;stroke:#F2CA60;stroke-width:5;stroke-linecap:round;stroke-linejoin:round;stroke-miterlimit:10;}
	.st12{clip-path:url(#SVGID_6_);}
	.st13{clip-path:url(#SVGID_8_);}
</style>
<g id="Layer_1">
</g>
<g id="Layer_3">
</g>
<g id="Layer_2">
</g>
<g id="Layer_4">
	<g>
		<defs>
			<rect id="SVGID_1_" x="-1619.09" y="3020.05" width="1920" height="681.5"/>
		</defs>
		<clipPath id="SVGID_2_">
			<use xlink:href="#SVGID_1_"  style="overflow:visible;"/>
		</clipPath>
		<g class="st0">
			<defs>
				<rect id="SVGID_3_" x="-1619.09" y="-3129.45" width="1920" height="6831"/>
			</defs>
			<clipPath id="SVGID_4_">
				<use xlink:href="#SVGID_3_"  style="overflow:visible;"/>
			</clipPath>
			<g id="Web_1920_3" class="st1">
				<rect x="-1619.09" y="-3129.45" class="st2" width="1920" height="6831"/>
				<rect id="Rectangle_44" x="-1619.09" y="-3129.45" class="st3" width="1919.8" height="6688.5"/>
				<path id="Path_5423" class="st4" d="M104.57-554.63c-15.57,0-29.72,1.41-43.87,2.83C43.72-721.61-99.21-853.22-273.27-853.22
					c-46.7-150.01-185.39-257.56-349.54-257.56c-148.59,0-274.54,87.74-332.56,215.1c-32.55-7.08-65.1-11.32-99.06-11.32
					c-246.24,0-445.78,199.54-445.78,445.78c-0.05,28.05,2.8,56.03,8.49,83.49c-80.99,67.55-127.68,167.67-127.37,273.13
					c0,193.88,158.5,352.37,355.21,352.37c89.16,0,169.82-32.55,233.5-87.74c41.36,22.14,87.52,33.8,134.44,33.96
					c69.34,0,131.61-24.06,181.14-65.1c69.34,60.85,158.5,97.65,257.56,97.65c106.14,0,203.78-42.45,273.13-111.8
					c72.17,76.42,174.06,124.53,287.28,124.53c219.35,0,397.66-178.31,397.66-397.66C502.23-377.73,323.92-554.63,104.57-554.63z"/>
				<text transform="matrix(1 -5.026527e-03 5.026527e-03 1 -506.2425 8.8394)" class="st3 st9 st10">Photography</text>
				<path id="Path_5424" class="st2" d="M-52.41,518.5c12.38-44.03,16.51-90.81,9.63-138.96C-67.55,192.42-235.4,60.34-421.15,78.22
					c-61.91-130.71-203.63-213.26-356.35-194c-133.46,17.89-239.4,108.69-282.05,228.39c-34.4-6.88-70.17-9.63-107.32-4.13
					c-129.81,17.16-235.79,112.22-266.92,239.4c-6.88,0-13.76,1.38-20.64,1.38c-187.12,24.77-320.58,196.75-295.81,383.87
					c24.77,188.49,196.75,320.58,385.24,297.19c16.51-2.75,33.02-5.5,48.16-11.01c31.65,132.08,158.22,221.51,295.81,203.63
					c52.28-6.88,99.06-28.89,137.59-60.54c52.28,94.93,159.6,152.72,273.8,138.96c126.58-16.51,221.52-118.32,236.65-239.4
					c62.95,41.31,138.55,58.87,213.26,49.53c173.36-22.01,295.81-181.61,272.42-354.97C98.93,651.96,34.27,565.28-52.41,518.5z"/>
			</g>
		</g>
	</g>
	<g>
		<defs>
			<rect id="SVGID_5_" x="-1025.24" y="289.47" width="1920" height="681.5"/>
		</defs>
		<clipPath id="SVGID_6_">
			<use xlink:href="#SVGID_5_"  style="overflow:visible;"/>
		</clipPath>
		<g class="st12">
			<defs>
				<rect id="SVGID_7_" x="-1025.24" y="-5860.03" width="1920" height="6831"/>
			</defs>
			<clipPath id="SVGID_8_">
				<use xlink:href="#SVGID_7_"  style="overflow:visible;"/>
			</clipPath>
			<g id="Web_1920_3_1_" class="st13">
				<rect x="-1025.24" y="-5860.03" class="st2" width="1920" height="6831"/>
				<g id="Group_252_1_" transform="translate(959.547 5858.416)">
					<path id="Path_5480_1_" class="st4" d="M-841.14-5679.44l-111.01,38.56c-8.18,2.92-17.53-1.75-20.45-9.93l-43.23-125.62
						c-2.92-8.18,1.75-17.53,9.93-20.45l12.27-4.09c1.92-0.41,3.15-2.29,2.74-4.21c-0.08-0.37-0.21-0.72-0.4-1.05
						c-0.41-1.92-2.29-3.15-4.21-2.74c-0.37,0.08-0.72,0.21-1.05,0.4l-12.27,4.09c-12.66,4.45-19.42,18.23-15.19,30.96l43.23,125.62
						c4.45,12.66,18.23,19.42,30.97,15.19l111.01-38.56c1.92-0.41,3.15-2.29,2.74-4.21c-0.08-0.37-0.21-0.72-0.4-1.05
						C-836.47-5678.85-838.8-5680.02-841.14-5679.44L-841.14-5679.44z"/>
					<path id="Path_5482_1_" class="st4" d="M-851.66-5858.8l-111.01,38.56c-1.92,0.41-3.15,2.29-2.74,4.21
						c0.08,0.37,0.21,0.72,0.4,1.05c0.41,1.92,2.29,3.15,4.21,2.74c0.37-0.08,0.72-0.21,1.05-0.4l111.01-38.56
						c8.18-2.92,17.53,1.75,20.45,9.93l43.23,125.62c2.92,8.18-1.75,17.53-9.93,20.45l-15.19,5.26c-2.1,0.81-3.15,3.16-2.34,5.26
						c0.81,2.1,3.16,3.15,5.26,2.34l15.19-5.26c12.66-4.45,19.42-18.23,15.19-30.96l-43.82-125.03
						C-825.14-5856.27-838.92-5863.03-851.66-5858.8L-851.66-5858.8z"/>
					<path id="Path_5483_1_" class="st4" d="M-913.01-5807.39l4.67-1.75c1.92-0.41,3.15-2.29,2.74-4.21
						c-0.08-0.37-0.21-0.72-0.4-1.05c-0.41-1.92-2.29-3.15-4.21-2.74c-0.37,0.08-0.72,0.21-1.05,0.4l-4.67,1.75
						c-1.92,0.41-3.15,2.29-2.74,4.21c0.08,0.37,0.21,0.72,0.4,1.05c0.41,1.92,2.29,3.15,4.21,2.74
						C-913.68-5807.06-913.33-5807.2-913.01-5807.39z"/>
					<path id="Path_5484_1_" class="st4" d="M-932.87-5800.38c1.92-0.41,3.15-2.29,2.74-4.21c-0.08-0.37-0.21-0.72-0.4-1.05
						c-0.41-1.92-2.29-3.15-4.21-2.74c-0.37,0.08-0.72,0.21-1.05,0.4l-4.67,1.75c-1.92,0.41-3.15,2.29-2.74,4.21
						c0.08,0.37,0.21,0.72,0.4,1.05c1.17,2.34,2.92,3.51,5.26,2.34L-932.87-5800.38z"/>
					<path id="Path_5496_1_" class="st4" d="M-962.08-5790.45l4.67-1.75c1.92-0.41,3.15-2.29,2.74-4.21
						c-0.08-0.37-0.21-0.72-0.4-1.05c-1.17-2.34-2.92-3.51-5.26-2.34l-4.67,1.75c-1.92,0.41-3.15,2.29-2.74,4.21
						c0.08,0.37,0.21,0.72,0.4,1.05C-966.17-5790.45-964.42-5789.28-962.08-5790.45z"/>
					<path id="Path_5507_1_" class="st4" d="M-901.32-5757.73c0.41,1.92,2.29,3.15,4.21,2.74c0.37-0.08,0.72-0.21,1.05-0.4
						c1.92-0.41,3.15-2.29,2.74-4.21c-0.08-0.37-0.21-0.72-0.4-1.05l-5.84-16.94l18.11,15.19c1.1,1.04,2.74,1.27,4.09,0.58
						c0.58,0,0.58,0,1.17-0.58c1.63-0.94,2.37-2.9,1.75-4.67l-11.1-31.55c-0.41-1.92-2.29-3.15-4.21-2.74
						c-0.37,0.08-0.72,0.21-1.05,0.4c-2.34,1.17-3.51,2.92-2.34,5.26l5.84,16.94l-18.11-15.19c-1.17-1.17-3.51-1.17-5.26,0
						c-1.63,0.94-2.37,2.9-1.75,4.67L-901.32-5757.73z"/>
				</g>
			</g>
		</g>
	</g>
	<g id="Group_304" transform="translate(589.905 0)">
		<path id="Path_5601" class="st3" d="M-534.29-0.44h-46.62c-4.71,0-8.52,3.81-8.52,8.52c0,0,0,0,0,0.01V54.7
			c0,4.71,3.81,8.52,8.52,8.52c0,0,0,0,0.01,0h46.62c4.71,0,8.52-3.81,8.52-8.52c0,0,0,0,0-0.01V8.09
			C-525.77,3.38-529.58-0.44-534.29-0.44C-534.29-0.44-534.29-0.44-534.29-0.44z M-540.74,45.1c-0.72,1.28-1.87,2.25-3.25,2.75
			c-1.4,0.71-2.93,1.11-4.49,1.18c-0.39,0-0.79-0.03-1.18-0.08c-0.41-0.05-0.76-0.12-1.04-0.17c-0.38-0.08-0.76-0.19-1.13-0.31
			c-0.46-0.15-0.81-0.26-1.01-0.35s-0.58-0.22-1.13-0.43c-0.55-0.2-0.9-0.33-1.03-0.38c-4.17-1.65-7.94-4.19-11.03-7.45
			c-3.26-3.09-5.8-6.85-7.45-11.03c-0.05-0.13-0.17-0.48-0.38-1.03c-0.2-0.55-0.35-0.93-0.43-1.13s-0.2-0.55-0.35-1.01
			s-0.25-0.85-0.32-1.14c-0.05-0.28-0.12-0.63-0.17-1.05c-0.05-0.39-0.08-0.78-0.08-1.18c0.07-1.56,0.47-3.1,1.18-4.49
			c0.5-1.38,1.48-2.53,2.75-3.25c1.1-0.48,2.28-0.74,3.48-0.76c0.18-0.01,0.37,0.01,0.55,0.07c0.23,0.16,0.42,0.37,0.56,0.61
			c0.31,0.45,0.6,0.91,0.86,1.39c0.32,0.56,0.61,1.11,0.91,1.64s0.58,1.05,0.86,1.56s0.45,0.85,0.51,0.98
			c0.07,0.12,0.22,0.33,0.45,0.65c0.2,0.27,0.37,0.56,0.51,0.86c0.11,0.23,0.16,0.48,0.17,0.73c-0.07,0.49-0.33,0.94-0.71,1.26
			c-0.47,0.5-0.99,0.95-1.54,1.36c-0.55,0.4-1.06,0.85-1.54,1.33c-0.37,0.29-0.62,0.7-0.71,1.16c0,0.19,0.04,0.38,0.12,0.56
			c0.08,0.22,0.15,0.4,0.22,0.53s0.18,0.33,0.33,0.58s0.25,0.42,0.3,0.48c1.17,2.15,2.64,4.13,4.36,5.87
			c1.75,1.72,3.72,3.18,5.87,4.36c0.07,0.05,0.23,0.15,0.48,0.3s0.45,0.26,0.58,0.33c0.17,0.09,0.35,0.16,0.53,0.22
			c0.18,0.07,0.37,0.11,0.56,0.12c0.36,0,0.88-0.38,1.51-1.13c0.65-0.76,1.29-1.51,1.96-2.26s1.21-1.11,1.62-1.11
			c0.25,0,0.5,0.06,0.73,0.17c0.3,0.15,0.59,0.32,0.86,0.51c0.32,0.23,0.55,0.38,0.65,0.45l1.82,1c1.21,0.65,2.24,1.21,3.05,1.71
			s1.26,0.83,1.33,1.01c0.06,0.18,0.08,0.36,0.07,0.55C-540,42.84-540.27,44.01-540.74,45.1z"/>
	</g>
</g>
</svg>
