<?xml version="1.0" encoding="utf-8"?>
<!-- Generator: Adobe Illustrator 23.0.0, SVG Export Plug-In . SVG Version: 6.00 Build 0)  -->
<svg version="1.1" id="Layer_1" xmlns="http://www.w3.org/2000/svg" xmlns:xlink="http://www.w3.org/1999/xlink" x="0px" y="0px"
	 viewBox="0 0 330 210" style="enable-background:new 0 0 330 210;" xml:space="preserve">
<style type="text/css">
	.st0{fill:#D04954;}
</style>
<g>
	<path class="st0" d="M0,0v210h330V0H0z M290.4,141.3c-11.2,14-31.7,16.3-45.7,5c-2.6,9.4-9.4,17-18.3,20.7
		c-16.1,6.7-34.7-0.9-41.4-17c-2.8,0.6-5.6,0.9-8.5,0.9c-3.2,0-6.3-0.4-9.4-1.2c-6.9,7.7-16.8,12.1-27.1,12.1
		c-2.2,0-4.4-0.2-6.5-0.7c-6,10.5-17.3,17-29.4,16.9l0,0c-18.9,0-34.2-15.3-34.2-34.2c0-1.5,0.1-2.9,0.3-4.2
		c-1.1,0.1-2.1,0.1-3.2,0.1c-0.3,0-0.7,0-1,0c-18.5-0.3-33.3-15.5-33-34s15.5-33.3,34-33h1.2c1.2-4.7,3.3-9.2,6.2-13.1
		c12.1-16.2,35.1-19.5,51.3-7.4c5.2-9,14.9-14.6,25.3-14.6c3.4,0,6.8,0.5,9.9,1.7c5.4-13.8,18.6-22.9,33.5-22.9
		c19.8,0,35.8,16.1,35.8,35.9v0.4c15.5,2.2,27,15.5,27,31.1c0,1.9-0.2,3.7-0.5,5.6c2.7-0.7,5.5-1.1,8.3-1.1l0,0
		c7.4,0,14.6,2.5,20.4,7.1C299.4,106.8,301.6,127.3,290.4,141.3z"/>
</g>
</svg>
