<?xml version="1.0" encoding="utf-8"?>
<!-- Generator: Adobe Illustrator 23.0.0, SVG Export Plug-In . SVG Version: 6.00 Build 0)  -->
<svg version="1.1" id="Layer_1" xmlns="http://www.w3.org/2000/svg" xmlns:xlink="http://www.w3.org/1999/xlink" x="0px" y="0px"
	 viewBox="0 0 1140 655" style="enable-background:new 0 0 1140 655;" xml:space="preserve">
<style type="text/css">
	.st0{clip-path:url(#SVGID_2_);}
	.st1{clip-path:url(#SVGID_4_);}
	.st2{fill:#FFFFFF;}
	.st3{fill:#D04954;}
	.st4{fill:#F2CA60;}
	.st5{fill:#4F8BC0;}
	.st6{font-family:'Arciform';}
	.st7{font-size:51px;}
	.st8{fill:#F0F5F9;}
	.st9{font-size:50px;}
</style>
<g>
	<g>
		<defs>
			<rect id="SVGID_1_" y="0" width="1140" height="655"/>
		</defs>
		<clipPath id="SVGID_2_">
			<use xlink:href="#SVGID_1_"  style="overflow:visible;"/>
		</clipPath>
		<g class="st0">
			<g>
				<defs>
					<rect id="SVGID_3_" x="-423.6" y="-999" width="1920" height="2532"/>
				</defs>
				<clipPath id="SVGID_4_">
					<use xlink:href="#SVGID_3_"  style="overflow:visible;"/>
				</clipPath>
				<g id="Web_1920_7" class="st1">
					<rect x="-423.6" y="-999" class="st2" width="1920" height="2532"/>
					<rect id="Rectangle_48" x="-426.6" y="-999" class="st3" width="1919.8" height="2516.5"/>
					<g id="Group_301" transform="translate(428 1000)">
						<rect id="Rectangle_92" x="-427.3" y="-998.5" class="st4" width="1139" height="654.1"/>
						<path id="Path_5585" class="st5" d="M-346.3-636.5c113,62.1,254.5,46,347.9-42.6c2.5-2,4.4-4.4,6.9-6.4
							c107.1-106.7,282-86.1,427.5-86.1s238.8-9.3,275.2-61.2V-999H-428.3v318L-346.3-636.5z"/>
						<g id="Group" transform="translate(36.604 51.937)">
							<text transform="matrix(1.0044 0 0 1 -313.1787 -960.9632)" class="st2 st6 st7">Hello, I am Alpha</text>
							<text transform="matrix(1.0044 0 0 1 -428.1621 -896.3885)" class="st2 st6 st7">I’m not a Graphic Designer</text>
							<text transform="matrix(1.0044 0 0 1 -293.5234 -831.8133)" class="st2 st6 st7">I’m a storyteller</text>
						</g>
						<g id="Group_296" transform="translate(902.58 30.861)">
							<g id="Group_293" transform="translate(140.401 43.987)">
								<path id="Path_5586" class="st4" d="M-377.5-961.3c-1.9,2.8-4.2,5.3-6.9,7.3c-4.2,3.2-9.4,4.9-14.7,4.9h-0.5
									c-6.9,0-13.3-2.9-18.7-9.3c-3.4-4.5-5.3-10-5.4-15.7c0-8.8,4.4-16.1,12.8-22c3.8-1.8,8-2.8,12.3-2.9
									c8.4,0,15.2,3.9,21.1,11.7l0.5,0.5c0-1,1.5-4.4,3.4-9.8c0.9-1.5,2.6-2.5,4.4-2.5c3,0.5,4.9,2.5,4.9,4.9
									c0,1-2.5,7.3-7.4,20.1c4.9,12.7,7.4,19.6,7.4,20.1c-0.5,2.9-2.5,4.9-4.9,4.9c-3,0-4.9-2.9-6.4-8.3L-377.5-961.3z
									 M-414.4-974c0,6.4,3,10.8,9.3,14.2c2,1,4.4,1,6.4,1c5.9,0,10.8-2.9,13.8-9.3l2-6.4c-2-6.4-4.4-10.3-7.4-12.2
									c-3-2-5.4-2.9-8.4-2.9h-1c-5.4,0-9.8,2.5-13.3,7.8C-413.4-978.9-414.4-976.5-414.4-974L-414.4-974z"/>
							</g>
							<g id="Group_294" transform="translate(0 42.03)">
								<path id="Path_5587" class="st8" d="M-373.7-997.5c-11-0.1-20,8.7-20.1,19.6c0,0.2,0,0.3,0,0.4c0,11.1,9,20.1,20.1,20.1
									s20.1-9,20.1-20.1c0.1-11-8.7-19.9-19.7-20.1C-373.4-997.5-373.5-997.5-373.7-997.5z M-367.3-976c-4-0.1-7.3-3.3-7.4-7.3
									c0-4,3.3-7.3,7.4-7.3c4.1,0,7.4,3.3,7.4,7.3C-360-979.3-363.3-976.1-367.3-976z"/>
								<path id="Path_5588" class="st8" d="M-315.7-997.5c-11-0.1-20,8.7-20.1,19.6c0,0.2,0,0.3,0,0.4c0,11.3,8.9,19.6,20.1,19.6
									c4.4,0,8.4-1,11.8-3.9c0.1,2.1,1.8,3.8,3.9,3.9c2,0.2,3.8-1.3,3.9-3.3c0-0.2,0-0.4,0-0.7v-15.7
									C-296.1-988.2-304.4-997.5-315.7-997.5z M-308.8-976c-4-0.1-7.3-3.3-7.4-7.3c0-4,3.3-7.3,7.4-7.3c4.1,0,7.4,3.3,7.4,7.3v0
									C-301.6-979.3-304.8-976.1-308.8-976z"/>
								<path id="Path_5589" class="st8" d="M-327-954h-13.8v-38.7c0-2.4-2-4.4-4.4-4.4s-4.4,2-4.4,4.4v42.1c0,2.4,2,4.4,4.4,4.4
									c0,0,0,0,0,0h17.2c2.1,0,3.9-1.7,3.9-3.8c0,0,0-0.1,0-0.1C-323.1-952.5-325-954-327-954z"/>
								<path id="Path_5590" class="st8" d="M-391.4-995c0-2.1-1.7-3.9-3.8-3.9c0,0-0.1,0-0.1,0h-25.1c-2.2,0-4,1.7-4,3.8
									s1.7,3.9,3.9,4c0,0,0.1,0,0.1,0h8.4v40.6c0,2.4,2,4.4,4.4,4.4s4.4-2,4.4-4.4v-40.6h8.4C-393.4-991.1-391.4-993.1-391.4-995z
									"/>
							</g>
							<g id="Group_295" transform="translate(33.941)">
								<path id="Path_5591" class="st4" d="M-418.9-974.5c0,0-2.5,2.9-4.9,6.4c-2.5,3.4,10.3,4.4,25.5,5.9
									c15.7,1.5,62.9-1,65.8-3.4c2-2-7.4-8.8-7.4-8.8S-369.3-968.7-418.9-974.5z"/>
								<path id="Path_5592" class="st4" d="M-417.5-978.5c0,0,27,4.4,76.7,0.5c0,0-1.5-14.2-4.9-17.1c-4.9-4.4-58.5-5.9-64.4,0
									C-414.5-992.2-417.5-978.5-417.5-978.5z"/>
							</g>
						</g>
						<g id="Group_297" transform="translate(565.279 442.767)">
							<text transform="matrix(1.0044 0 0 1 -425.8093 -960.9641)" class="st5 st6 st7">alpha.pleiku@gmail.com</text>
						</g>
						<g id="Group_298" transform="translate(734.035 380.393)">
							<text transform="matrix(1.0044 0 0 1 -425.0594 -960.9631)" class="st5 st6 st7">(+84)377586334</text>
						</g>
						<g id="Group_299" transform="translate(468.047 573.22)">
							<text transform="matrix(1.0044 0 0 1 -426.2423 -960.963)" class="st5 st6 st9">behance.net/alphapleikfa31</text>
						</g>
						<g id="Group_300" transform="translate(772.724 505.14)">
							<text transform="matrix(1.0044 0 0 1 -424.8871 -960.9631)" class="st5 st6 st7">tolaalpha.com</text>
						</g>
					</g>
				</g>
			</g>
		</g>
	</g>
</g>
</svg>
