<?xml version="1.0" encoding="utf-8"?>
<!-- Generator: Adobe Illustrator 24.0.1, SVG Export Plug-In . SVG Version: 6.00 Build 0)  -->
<svg version="1.1" xmlns="http://www.w3.org/2000/svg" xmlns:xlink="http://www.w3.org/1999/xlink" x="0px" y="0px"
	 viewBox="0 0 63 63" style="enable-background:new 0 0 63 63;" xml:space="preserve">
<style type="text/css">
	.st0{clip-path:url(#SVGID_2_);}
	.st1{clip-path:url(#SVGID_4_);}
	.st2{fill:#FFFFFF;}
	.st3{fill:#D04954;}
	.st4{fill:#F2CA60;}
	.st5{fill:none;stroke:#707070;}
	.st6{fill:#4F8BC0;}
	.st7{fill:#F6F6F6;}
	.st8{fill:#F0F5F9;}
	.st9{fill:none;stroke:#F2CA60;stroke-width:5;stroke-linecap:round;stroke-linejoin:round;stroke-miterlimit:10;}
	.st10{clip-path:url(#SVGID_6_);}
	.st11{clip-path:url(#SVGID_8_);}
</style>
<g id="Layer_1">
</g>
<g id="Layer_3">
</g>
<g id="Layer_2">
</g>
<g id="Layer_4">
	<g>
		<defs>
			<rect id="SVGID_1_" x="-1030.09" y="3020.05" width="1920" height="681.5"/>
		</defs>
		<clipPath id="SVGID_2_">
			<use xlink:href="#SVGID_1_"  style="overflow:visible;"/>
		</clipPath>
		<g class="st0">
			<defs>
				<rect id="SVGID_3_" x="-1030.09" y="-3129.45" width="1920" height="6831"/>
			</defs>
			<clipPath id="SVGID_4_">
				<use xlink:href="#SVGID_3_"  style="overflow:visible;"/>
			</clipPath>
			<g id="Web_1920_3" class="st1">
				<rect x="-1030.09" y="-3129.45" class="st2" width="1920" height="6831"/>
				<rect id="Rectangle_44" x="-1030.09" y="-3129.45" class="st3" width="1919.8" height="6688.5"/>
				<path id="Path_5423" class="st4" d="M693.57-554.63c-15.57,0-29.72,1.41-43.87,2.83c-16.98-169.82-159.91-301.43-333.98-301.43
					c-46.7-150.01-185.39-257.56-349.54-257.56c-148.59,0-274.54,87.74-332.56,215.1c-32.55-7.08-65.1-11.32-99.06-11.32
					c-246.24,0-445.78,199.54-445.78,445.78c-0.05,28.05,2.8,56.03,8.49,83.49c-80.99,67.55-127.68,167.67-127.37,273.13
					c0,193.88,158.5,352.37,355.21,352.37c89.15,0,169.82-32.55,233.5-87.74c41.36,22.14,87.52,33.8,134.44,33.96
					c69.34,0,131.61-24.06,181.14-65.1c69.34,60.85,158.5,97.65,257.56,97.65c106.14,0,203.78-42.45,273.13-111.8
					c72.17,76.42,174.06,124.53,287.28,124.53c219.35,0,397.66-178.31,397.66-397.66C1091.23-377.73,912.92-554.63,693.57-554.63z"
					/>
				<path id="Path_5424" class="st2" d="M536.59,518.5c12.38-44.03,16.51-90.81,9.63-138.96C521.45,192.42,353.6,60.34,167.85,78.22
					c-61.91-130.71-203.63-213.26-356.35-194C-321.95-97.89-427.9-7.08-470.55,112.62c-34.4-6.88-70.17-9.63-107.32-4.13
					c-129.81,17.16-235.79,112.22-266.92,239.4c-6.88,0-13.76,1.38-20.64,1.38c-187.12,24.77-320.58,196.75-295.81,383.87
					c24.77,188.49,196.75,320.58,385.24,297.19c16.51-2.75,33.02-5.5,48.16-11.01c31.64,132.08,158.22,221.51,295.81,203.63
					c52.28-6.88,99.06-28.89,137.59-60.54c52.28,94.93,159.6,152.72,273.8,138.96c126.58-16.51,221.52-118.32,236.65-239.4
					c62.95,41.31,138.55,58.87,213.26,49.53c173.36-22.01,295.81-181.61,272.42-354.97C687.93,651.96,623.27,565.28,536.59,518.5z"
					/>
			</g>
		</g>
	</g>
	<g>
		<defs>
			<rect id="SVGID_5_" x="-436.24" y="289.47" width="1920" height="681.5"/>
		</defs>
		<clipPath id="SVGID_6_">
			<use xlink:href="#SVGID_5_"  style="overflow:visible;"/>
		</clipPath>
		<g class="st10">
			<defs>
				<rect id="SVGID_7_" x="-436.24" y="-5860.03" width="1920" height="6831"/>
			</defs>
			<clipPath id="SVGID_8_">
				<use xlink:href="#SVGID_7_"  style="overflow:visible;"/>
			</clipPath>
			<g id="Web_1920_3_1_" class="st11">
				<rect x="-436.24" y="-5860.03" class="st2" width="1920" height="6831"/>
			</g>
		</g>
	</g>
	<g id="Group_302" transform="translate(0 0)">
		<path id="Path_5594" class="st3" d="M54.72-0.44H8.09c-4.71,0-8.52,3.81-8.52,8.52c0,0,0,0,0,0.01V54.7
			c-0.01,4.71,3.8,8.53,8.51,8.54c0.01,0,0.01,0,0.02,0h46.62c4.71,0,8.52-3.81,8.52-8.52c0,0,0,0,0-0.01V8.09
			c0.01-4.69-3.78-8.51-8.48-8.52C54.74-0.44,54.73-0.44,54.72-0.44z M45.75,17.26L31.39,28.6L16.57,17.26H45.75z M47.23,45.55
			H15.09v-23.5L29.9,33.29c0.43,0.29,0.94,0.45,1.46,0.45c0.48,0,0.94-0.17,1.31-0.48l14.56-11.58L47.23,45.55z"/>
	</g>
</g>
</svg>
