<?xml version="1.0" encoding="utf-8"?>
<!-- Generator: Adobe Illustrator 24.0.1, SVG Export Plug-In . SVG Version: 6.00 Build 0)  -->
<svg version="1.1" xmlns="http://www.w3.org/2000/svg" xmlns:xlink="http://www.w3.org/1999/xlink" x="0px" y="0px"
	 viewBox="0 0 63 63" style="enable-background:new 0 0 63 63;" xml:space="preserve">
<style type="text/css">
	.st0{clip-path:url(#SVGID_2_);}
	.st1{clip-path:url(#SVGID_4_);}
	.st2{fill:#FFFFFF;}
	.st3{fill:#D04954;}
	.st4{fill:#F2CA60;}
	.st5{fill:none;stroke:#707070;}
	.st6{fill:#4F8BC0;}
	.st7{fill:#F6F6F6;}
	.st8{fill:#F0F5F9;}
	.st9{fill:none;stroke:#F2CA60;stroke-width:5;stroke-linecap:round;stroke-linejoin:round;stroke-miterlimit:10;}
	.st10{clip-path:url(#SVGID_6_);}
	.st11{clip-path:url(#SVGID_8_);}
</style>
<g id="Layer_1">
</g>
<g id="Layer_3">
</g>
<g id="Layer_2">
</g>
<g id="Layer_4">
	<g>
		<defs>
			<rect id="SVGID_1_" x="-1922.09" y="3020.05" width="1920" height="681.5"/>
		</defs>
		<clipPath id="SVGID_2_">
			<use xlink:href="#SVGID_1_"  style="overflow:visible;"/>
		</clipPath>
		<g class="st0">
			<defs>
				<rect id="SVGID_3_" x="-1922.09" y="-3129.45" width="1920" height="6831"/>
			</defs>
			<clipPath id="SVGID_4_">
				<use xlink:href="#SVGID_3_"  style="overflow:visible;"/>
			</clipPath>
			<g id="Web_1920_3" class="st1">
				<path id="Path_5423" class="st4" d="M-198.43-554.63c-15.57,0-29.72,1.41-43.87,2.83c-16.98-169.82-159.91-301.43-333.98-301.43
					c-46.7-150.01-185.39-257.56-349.54-257.56c-148.59,0-274.54,87.74-332.56,215.1c-32.55-7.08-65.1-11.32-99.06-11.32
					c-246.24,0-445.78,199.54-445.78,445.78c-0.05,28.05,2.8,56.03,8.49,83.49c-80.99,67.55-127.68,167.67-127.37,273.13
					c0,193.88,158.5,352.37,355.21,352.37c89.16,0,169.82-32.55,233.5-87.74c41.36,22.14,87.52,33.8,134.44,33.96
					c69.34,0,131.61-24.06,181.14-65.1c69.34,60.85,158.5,97.65,257.56,97.65c106.14,0,203.78-42.45,273.13-111.8
					c72.17,76.42,174.06,124.53,287.28,124.53c219.35,0,397.66-178.31,397.66-397.66C199.23-377.73,20.92-554.63-198.43-554.63z"/>
			</g>
		</g>
	</g>
	<g>
		<defs>
			<rect id="SVGID_5_" x="-1328.24" y="289.47" width="1920" height="681.5"/>
		</defs>
		<clipPath id="SVGID_6_">
			<use xlink:href="#SVGID_5_"  style="overflow:visible;"/>
		</clipPath>
		<g class="st10">
			<defs>
				<rect id="SVGID_7_" x="-1328.24" y="-5860.03" width="1920" height="6831"/>
			</defs>
			<clipPath id="SVGID_8_">
				<use xlink:href="#SVGID_7_"  style="overflow:visible;"/>
			</clipPath>
			<g id="Web_1920_3_1_" class="st11">
				<rect x="-1328.24" y="-5860.03" class="st2" width="1920" height="6831"/>
			</g>
		</g>
	</g>
	<g id="Group_305" transform="translate(892.076 0)">
		<path id="Path_5602" class="st3" d="M-837.29-0.44h-46.62c-4.71,0-8.52,3.81-8.52,8.52c0,0,0,0,0,0.01V54.7
			c0,4.71,3.81,8.52,8.52,8.52c0,0,0,0,0.01,0h46.62c4.71,0,8.52-3.81,8.52-8.52c0,0,0,0,0-0.01V8.09
			C-828.77,3.38-832.58-0.44-837.29-0.44C-837.29-0.44-837.29-0.44-837.29-0.44z M-849.99,18.12h-5.31
			c-1.38-0.08-2.57,0.97-2.65,2.35c-0.01,0.1-0.01,0.2,0,0.3v5.31h7.96v7.96h-7.96v18.59h-7.96V34.06h-5.31V26.1h5.31v-6.63
			c0.06-5.1,4.18-9.23,9.29-9.29h6.63L-849.99,18.12z"/>
	</g>
</g>
</svg>
