<?xml version="1.0" encoding="utf-8"?>
<!-- Generator: Adobe Illustrator 23.0.1, SVG Export Plug-In . SVG Version: 6.00 Build 0)  -->
<svg version="1.1" id="Layer_1" xmlns="http://www.w3.org/2000/svg" xmlns:xlink="http://www.w3.org/1999/xlink" x="0px" y="0px"
	 viewBox="0 0 1920 682" style="enable-background:new 0 0 1920 682;" xml:space="preserve">
<style type="text/css">
	.st0{clip-path:url(#SVGID_2_);}
	.st1{clip-path:url(#SVGID_4_);}
	.st2{fill:#F2CA60;}
</style>
<g id="Layer_3">
</g>
<g>
	<g>
		<defs>
			<rect id="SVGID_1_" x="-0.24" y="0.47" width="1920" height="681.5"/>
		</defs>
		<clipPath id="SVGID_2_">
			<use xlink:href="#SVGID_1_"  style="overflow:visible;"/>
		</clipPath>
		<g class="st0">
			<g>
				<defs>
					<rect id="SVGID_3_" x="-0.24" y="-6149.03" width="1920" height="6831"/>
				</defs>
				<clipPath id="SVGID_4_">
					<use xlink:href="#SVGID_3_"  style="overflow:visible;"/>
				</clipPath>
				<g id="Web_1920_3_1_" class="st1">
					<path id="Path_5443_1_" class="st2" d="M2271.86,1119.43c0-182.61-122.88-334.5-291.83-378.87
						c5.12-30.72,8.53-61.44,8.53-93.86c0-267.94-216.74-484.69-484.69-484.69c-98.98,0-189.44,29.01-266.24,80.21
						c-88.74-110.93-225.28-180.9-378.87-180.9c-211.62,0-392.53,134.82-460.79,322.55c-30.72-5.12-61.44-8.53-93.86-8.53
						c-266.24,0-482.98,215.04-482.98,481.27c0,155.3,73.39,291.84,186.02,380.58c-5.12,27.31-8.53,54.61-8.53,83.62
						c0,262.82,213.33,476.15,476.15,476.15c114.35,0,218.45-39.25,300.37-105.81c54.33,28.09,114.62,42.72,175.78,42.67
						c44.88-0.01,89.4-8.11,131.41-23.89c88.74,76.8,204.8,122.88,331.09,122.88c215.04,0,397.65-133.12,472.74-320.85
						C2101.2,1506.84,2271.86,1332.76,2271.86,1119.43z"/>
				</g>
			</g>
		</g>
	</g>
</g>
</svg>
