<?xml version="1.0" encoding="utf-8"?>
<!-- Generator: Adobe Illustrator 24.0.1, SVG Export Plug-In . SVG Version: 6.00 Build 0)  -->
<svg version="1.1" xmlns="http://www.w3.org/2000/svg" xmlns:xlink="http://www.w3.org/1999/xlink" x="0px" y="0px"
	 viewBox="0 0 1920 262" style="enable-background:new 0 0 1920 262;" xml:space="preserve">
<style type="text/css">
	.st0{fill:#FFFFFF;}
	.st1{fill:#F2CA60;}
	.st2{fill:none;stroke:#F2CA60;stroke-miterlimit:10;}
	.st3{clip-path:url(#SVGID_2_);fill:none;}
	.st4{clip-path:url(#SVGID_2_);}
	.st5{fill:#D04954;}
	.st6{fill:none;stroke:#707070;}
	.st7{fill:#4F8BC0;}
	.st8{fill:#F6F6F6;}
	.st9{fill:#F0F5F9;}
	.st10{fill:none;stroke:#F2CA60;stroke-width:5;stroke-linecap:round;stroke-linejoin:round;stroke-miterlimit:10;}
	.st11{clip-path:url(#SVGID_4_);fill:none;}
	.st12{clip-path:url(#SVGID_4_);}
	.st13{clip-path:url(#SVGID_6_);fill:none;}
	.st14{clip-path:url(#SVGID_6_);}
	.st15{font-family:'ArialMT';}
	.st16{font-size:85px;}
	.st17{clip-path:url(#SVGID_8_);fill:none;}
	.st18{clip-path:url(#SVGID_8_);}
	.st19{clip-path:url(#SVGID_10_);fill:none;}
	.st20{clip-path:url(#SVGID_10_);}
	.st21{clip-path:url(#SVGID_12_);fill:none;}
	.st22{clip-path:url(#SVGID_12_);}
	.st23{clip-path:url(#SVGID_14_);fill:none;}
	.st24{clip-path:url(#SVGID_14_);}
	.st25{clip-path:url(#SVGID_16_);fill:none;}
	.st26{clip-path:url(#SVGID_16_);}
	.st27{clip-path:url(#SVGID_18_);fill:none;}
	.st28{clip-path:url(#SVGID_18_);}
	.st29{clip-path:url(#SVGID_20_);fill:none;}
	.st30{clip-path:url(#SVGID_20_);}
	.st31{clip-path:url(#SVGID_22_);fill:none;}
	.st32{clip-path:url(#SVGID_22_);}
	.st33{clip-path:url(#SVGID_24_);fill:none;}
	.st34{clip-path:url(#SVGID_24_);}
	.st35{clip-path:url(#SVGID_26_);fill:none;}
	.st36{clip-path:url(#SVGID_26_);}
	.st37{clip-path:url(#SVGID_28_);fill:none;}
	.st38{clip-path:url(#SVGID_28_);}
	.st39{clip-path:url(#SVGID_30_);fill:none;}
	.st40{clip-path:url(#SVGID_30_);}
	.st41{clip-path:url(#SVGID_32_);fill:none;}
	.st42{clip-path:url(#SVGID_32_);}
	.st43{clip-path:url(#SVGID_34_);fill:none;}
	.st44{clip-path:url(#SVGID_34_);}
</style>
<g id="Layer_1">
</g>
<g id="Layer_3">
</g>
<g id="Layer_2">
	<g>
		<defs>
			<rect id="SVGID_1_" x="948.33" y="-1917.58" width="1919.5" height="261.5"/>
		</defs>
		<clipPath id="SVGID_2_">
			<use xlink:href="#SVGID_1_"  style="overflow:visible;"/>
		</clipPath>
		<rect x="948.33" y="-1917.58" class="st3" width="1920" height="6831"/>
		<g id="Web_1920_3" class="st4">
			<rect x="948.33" y="-1917.58" class="st0" width="1920" height="6831"/>
			<rect id="Rectangle_44" x="948.33" y="-1917.58" class="st5" width="1919.8" height="6688.5"/>
			<path id="Path_5351" class="st7" d="M2852.68-342.62c-27.95,0.09-55.78,3.63-82.87,10.52c2.63-18.42,5.26-36.83,5.26-55.24
				c0-157.84-117.06-288.06-268.33-309.1v-3.95c0.31-196.56-158.78-356.15-355.34-356.46c-0.37,0-0.74,0-1.12,0
				c-151.26,0-280.17,94.7-331.46,227.55c-31.57-11.84-64.45-17.1-98.65-17.1c-107.86,0-201.25,57.88-251.23,144.69
				c-60.51-44.72-135.48-72.34-217.03-72.34C1084.5-774.28,938.5-660.3,898.09-497.83h-11.84
				c-183.79-0.33-333.04,148.4-333.37,332.19s148.4,333.04,332.19,333.37c0.39,0,0.79,0,1.18,0c10.52,0,21.04,0,31.57-1.31
				c-1.32,13.15-2.63,27.62-2.63,42.09c0,188.09,152.58,339.36,339.36,339.36c124.96,0,234.13-67.08,292-168.36
				c21.05,3.95,42.09,6.58,64.45,6.58c106.54,0,202.56-46.04,269.64-119.7c30.5,7.9,61.88,11.87,93.39,11.84
				c28.94,0,56.56-2.63,84.18-9.21c47.35,114.44,159.16,193.35,290.69,193.35c144.69,0,265.7-97.33,302.53-230.18
				c55.24,43.4,124.96,71.03,201.25,71.03c178.89,0,323.57-144.69,323.57-323.57C3176.25-196.61,3031.57-342.62,2852.68-342.62z"/>
			<g id="Group_212" transform="translate(-40.949 1229.885)">
				<path id="Path_5410" class="st5" d="M1072.17-1646c0,0,15.19,18.23,34.43,28.36c0,0-21.27,32.41-5.06,42.54
					c16.21,10.13,36.46-18.23,37.48-24.31c0,0,35.45,19.24,70.9,12.15c0,0,50.64,23.3,242.07-5.06c0,0,37.47,79,34.44,82.04
					c-3.04,4.05-110.4,38.49-222.82,58.74c0,0-48.62-4.05-72.92,52.67c-24.31,56.72-72.93,221.81-202.57,400.07v-607.7L1072.17-1646
					z"/>
			</g>
			<path id="Path_5423" class="st1" d="M2672,657.24c-15.57,0-29.72,1.41-43.87,2.83c-16.98-169.82-159.91-301.43-333.98-301.43
				c-46.7-150.01-185.39-257.56-349.55-257.56c-148.59,0-274.54,87.74-332.56,215.1c-32.55-7.08-65.1-11.32-99.06-11.32
				c-246.24,0-445.78,199.54-445.78,445.78c-0.05,28.05,2.8,56.03,8.49,83.49c-80.99,67.55-127.68,167.67-127.37,273.13
				c0,193.88,158.5,352.38,355.21,352.38c89.16,0,169.82-32.55,233.5-87.74c41.36,22.14,87.52,33.8,134.44,33.96
				c69.34,0,131.61-24.06,181.14-65.1c69.34,60.85,158.5,97.65,257.56,97.65c106.14,0,203.78-42.45,273.13-111.8
				c72.17,76.42,174.06,124.53,287.28,124.53c219.35,0,397.66-178.31,397.66-397.66C3069.66,834.14,2891.35,657.24,2672,657.24z"/>
		</g>
	</g>
	<g>
		<defs>
			<rect id="SVGID_3_" x="948.33" y="-1917.58" width="1919.5" height="261.5"/>
		</defs>
		<clipPath id="SVGID_4_">
			<use xlink:href="#SVGID_3_"  style="overflow:visible;"/>
		</clipPath>
		<rect x="948.33" y="-1917.58" class="st11" width="1920" height="6831"/>
		<g id="Web_1920_3_1_" class="st12">
			<rect x="948.33" y="-1917.58" class="st0" width="1920" height="6831"/>
			<rect id="Rectangle_44_1_" x="948.33" y="-1917.58" class="st5" width="1919.8" height="6688.5"/>
			<path id="Path_5351_1_" class="st7" d="M2852.68-342.62c-27.95,0.09-55.78,3.63-82.87,10.52c2.63-18.42,5.26-36.83,5.26-55.24
				c0-157.84-117.06-288.06-268.33-309.1v-3.95c0.31-196.56-158.78-356.15-355.34-356.46c-0.37,0-0.74,0-1.12,0
				c-151.26,0-280.17,94.7-331.46,227.55c-31.57-11.84-64.45-17.1-98.65-17.1c-107.86,0-201.25,57.88-251.23,144.69
				c-60.51-44.72-135.48-72.34-217.03-72.34C1084.5-774.28,938.5-660.3,898.09-497.83h-11.84
				c-183.79-0.33-333.04,148.4-333.37,332.19s148.4,333.04,332.19,333.37c0.39,0,0.79,0,1.18,0c10.52,0,21.04,0,31.57-1.31
				c-1.32,13.15-2.63,27.62-2.63,42.09c0,188.09,152.58,339.36,339.36,339.36c124.96,0,234.13-67.08,292-168.36
				c21.05,3.95,42.09,6.58,64.45,6.58c106.54,0,202.56-46.04,269.64-119.7c30.5,7.9,61.88,11.87,93.39,11.84
				c28.94,0,56.56-2.63,84.18-9.21c47.35,114.44,159.16,193.35,290.69,193.35c144.69,0,265.7-97.33,302.53-230.18
				c55.24,43.4,124.96,71.03,201.25,71.03c178.89,0,323.57-144.69,323.57-323.57C3176.25-196.61,3031.57-342.62,2852.68-342.62z"/>
			<g id="Group_212_1_" transform="translate(-40.949 1229.885)">
				<path id="Path_5410_1_" class="st5" d="M1072.17-1646c0,0,15.19,18.23,34.43,28.36c0,0-21.27,32.41-5.06,42.54
					c16.21,10.13,36.46-18.23,37.48-24.31c0,0,35.45,19.24,70.9,12.15c0,0,50.64,23.3,242.07-5.06c0,0,37.47,79,34.44,82.04
					c-3.04,4.05-110.4,38.49-222.82,58.74c0,0-48.62-4.05-72.92,52.67c-24.31,56.72-72.93,221.81-202.57,400.07v-607.7L1072.17-1646
					z"/>
			</g>
			<path id="Path_5423_1_" class="st1" d="M2672,657.24c-15.57,0-29.72,1.41-43.87,2.83c-16.98-169.82-159.91-301.43-333.98-301.43
				c-46.7-150.01-185.39-257.56-349.55-257.56c-148.59,0-274.54,87.74-332.56,215.1c-32.55-7.08-65.1-11.32-99.06-11.32
				c-246.24,0-445.78,199.54-445.78,445.78c-0.05,28.05,2.8,56.03,8.49,83.49c-80.99,67.55-127.68,167.67-127.37,273.13
				c0,193.88,158.5,352.38,355.21,352.38c89.16,0,169.82-32.55,233.5-87.74c41.36,22.14,87.52,33.8,134.44,33.96
				c69.34,0,131.61-24.06,181.14-65.1c69.34,60.85,158.5,97.65,257.56,97.65c106.14,0,203.78-42.45,273.13-111.8
				c72.17,76.42,174.06,124.53,287.28,124.53c219.35,0,397.66-178.31,397.66-397.66C3069.66,834.14,2891.35,657.24,2672,657.24z"/>
		</g>
	</g>
	<g>
		<defs>
			<rect id="SVGID_5_" x="1096.15" y="-2945.47" width="1919.5" height="261.5"/>
		</defs>
		<clipPath id="SVGID_6_">
			<use xlink:href="#SVGID_5_"  style="overflow:visible;"/>
		</clipPath>
		<rect x="1096.15" y="-2945.47" class="st13" width="1920" height="6831"/>
		<g id="Web_1920_3_2_" class="st14">
			<rect x="1096.15" y="-2945.47" class="st0" width="1920" height="6831"/>
			<rect id="Rectangle_44_2_" x="1096.15" y="-2945.47" class="st5" width="1919.8" height="6688.5"/>
			<path id="Path_5423_2_" class="st1" d="M2819.81-370.64c-15.57,0-29.72,1.41-43.87,2.83
				c-16.98-169.82-159.91-301.43-333.98-301.43c-46.7-150.01-185.39-257.56-349.54-257.56c-148.59,0-274.54,87.74-332.56,215.1
				c-32.55-7.08-65.1-11.32-99.06-11.32c-246.24,0-445.78,199.54-445.78,445.78c-0.05,28.05,2.8,56.03,8.49,83.49
				c-80.99,67.55-127.68,167.67-127.36,273.13c0,193.88,158.5,352.37,355.21,352.37c89.15,0,169.82-32.55,233.5-87.74
				c41.36,22.14,87.52,33.8,134.44,33.96c69.34,0,131.61-24.06,181.14-65.1c69.34,60.85,158.5,97.65,257.56,97.65
				c106.14,0,203.78-42.45,273.13-111.8c72.17,76.42,174.06,124.53,287.28,124.53c219.35,0,397.66-178.31,397.66-397.66
				C3217.47-193.74,3039.16-370.64,2819.81-370.64z"/>
			<g id="Group_218_2_" transform="translate(556.203 2924.125)">
				<text transform="matrix(1 -2.059487e-03 2.059487e-03 1 1096.2819 -2879.6958)" class="st0 st15 st16">Branding</text>
			</g>
			<path id="Path_5424_2_" class="st0" d="M2662.83,702.48c12.38-44.03,16.51-90.81,9.63-138.96
				c-24.77-187.12-192.62-319.2-378.36-301.32c-61.91-130.71-203.63-213.26-356.35-194c-133.46,17.89-239.4,108.69-282.05,228.39
				c-34.4-6.88-70.17-9.63-107.32-4.13c-129.81,17.16-235.79,112.22-266.92,239.4c-6.88,0-13.76,1.38-20.64,1.38
				C1073.7,558.02,940.24,730,965.01,917.12c24.77,188.49,196.75,320.58,385.24,297.19c16.51-2.75,33.02-5.5,48.15-11.01
				c31.65,132.08,158.23,221.52,295.81,203.63c52.28-6.88,99.06-28.89,137.59-60.54c52.28,94.93,159.6,152.72,273.8,138.96
				c126.58-16.51,221.52-118.32,236.65-239.4c62.95,41.31,138.55,58.87,213.26,49.53c173.36-22.01,295.81-181.61,272.42-354.97
				C2814.17,835.94,2749.51,749.26,2662.83,702.48z"/>
		</g>
	</g>
	<g>
		<defs>
			<rect id="SVGID_7_" x="1096.15" y="-2945.47" width="1919.5" height="261.5"/>
		</defs>
		<clipPath id="SVGID_8_">
			<use xlink:href="#SVGID_7_"  style="overflow:visible;"/>
		</clipPath>
		<rect x="1096.15" y="-2945.47" class="st17" width="1920" height="6831"/>
		<g id="Web_1920_3_3_" class="st18">
			<rect x="1096.15" y="-2945.47" class="st0" width="1920" height="6831"/>
			<rect id="Rectangle_44_3_" x="1096.15" y="-2945.47" class="st5" width="1919.8" height="6688.5"/>
			<path id="Path_5423_3_" class="st1" d="M2819.81-370.64c-15.57,0-29.72,1.41-43.87,2.83
				c-16.98-169.82-159.91-301.43-333.98-301.43c-46.7-150.01-185.39-257.56-349.54-257.56c-148.59,0-274.54,87.74-332.56,215.1
				c-32.55-7.08-65.1-11.32-99.06-11.32c-246.24,0-445.78,199.54-445.78,445.78c-0.05,28.05,2.8,56.03,8.49,83.49
				c-80.99,67.55-127.68,167.67-127.36,273.13c0,193.88,158.5,352.37,355.21,352.37c89.15,0,169.82-32.55,233.5-87.74
				c41.36,22.14,87.52,33.8,134.44,33.96c69.34,0,131.61-24.06,181.14-65.1c69.34,60.85,158.5,97.65,257.56,97.65
				c106.14,0,203.78-42.45,273.13-111.8c72.17,76.42,174.06,124.53,287.28,124.53c219.35,0,397.66-178.31,397.66-397.66
				C3217.47-193.74,3039.16-370.64,2819.81-370.64z"/>
			<g id="Group_218_3_" transform="translate(556.203 2924.125)">
				<text transform="matrix(1 -2.059487e-03 2.059487e-03 1 1096.2819 -2879.6958)" class="st0 st15 st16">Branding</text>
			</g>
			<path id="Path_5424_3_" class="st0" d="M2662.83,702.48c12.38-44.03,16.51-90.81,9.63-138.96
				c-24.77-187.12-192.62-319.2-378.36-301.32c-61.91-130.71-203.63-213.26-356.35-194c-133.46,17.89-239.4,108.69-282.05,228.39
				c-34.4-6.88-70.17-9.63-107.32-4.13c-129.81,17.16-235.79,112.22-266.92,239.4c-6.88,0-13.76,1.38-20.64,1.38
				C1073.7,558.02,940.24,730,965.01,917.12c24.77,188.49,196.75,320.58,385.24,297.19c16.51-2.75,33.02-5.5,48.15-11.01
				c31.65,132.08,158.23,221.52,295.81,203.63c52.28-6.88,99.06-28.89,137.59-60.54c52.28,94.93,159.6,152.72,273.8,138.96
				c126.58-16.51,221.52-118.32,236.65-239.4c62.95,41.31,138.55,58.87,213.26,49.53c173.36-22.01,295.81-181.61,272.42-354.97
				C2814.17,835.94,2749.51,749.26,2662.83,702.48z"/>
		</g>
	</g>
	<g>
		<defs>
			<rect id="SVGID_9_" x="1096.15" y="-2945.47" width="1919.5" height="261.5"/>
		</defs>
		<clipPath id="SVGID_10_">
			<use xlink:href="#SVGID_9_"  style="overflow:visible;"/>
		</clipPath>
		<rect x="1096.15" y="-2945.47" class="st19" width="1920" height="6831"/>
		<g id="Web_1920_3_4_" class="st20">
			<rect x="1096.15" y="-2945.47" class="st0" width="1920" height="6831"/>
			<rect id="Rectangle_44_4_" x="1096.15" y="-2945.47" class="st5" width="1919.8" height="6688.5"/>
			<path id="Path_5423_4_" class="st1" d="M2819.81-370.64c-15.57,0-29.72,1.41-43.87,2.83
				c-16.98-169.82-159.91-301.43-333.98-301.43c-46.7-150.01-185.39-257.56-349.54-257.56c-148.59,0-274.54,87.74-332.56,215.1
				c-32.55-7.08-65.1-11.32-99.06-11.32c-246.24,0-445.78,199.54-445.78,445.78c-0.05,28.05,2.8,56.03,8.49,83.49
				c-80.99,67.55-127.68,167.67-127.36,273.13c0,193.88,158.5,352.37,355.21,352.37c89.15,0,169.82-32.55,233.5-87.74
				c41.36,22.14,87.52,33.8,134.44,33.96c69.34,0,131.61-24.06,181.14-65.1c69.34,60.85,158.5,97.65,257.56,97.65
				c106.14,0,203.78-42.45,273.13-111.8c72.17,76.42,174.06,124.53,287.28,124.53c219.35,0,397.66-178.31,397.66-397.66
				C3217.47-193.74,3039.16-370.64,2819.81-370.64z"/>
			<g id="Group_218_4_" transform="translate(556.203 2924.125)">
				<text transform="matrix(1 -2.059487e-03 2.059487e-03 1 1096.2819 -2879.6958)" class="st0 st15 st16">Branding</text>
			</g>
			<path id="Path_5424_4_" class="st0" d="M2662.83,702.48c12.38-44.03,16.51-90.81,9.63-138.96
				c-24.77-187.12-192.62-319.2-378.36-301.32c-61.91-130.71-203.63-213.26-356.35-194c-133.46,17.89-239.4,108.69-282.05,228.39
				c-34.4-6.88-70.17-9.63-107.32-4.13c-129.81,17.16-235.79,112.22-266.92,239.4c-6.88,0-13.76,1.38-20.64,1.38
				C1073.7,558.02,940.24,730,965.01,917.12c24.77,188.49,196.75,320.58,385.24,297.19c16.51-2.75,33.02-5.5,48.15-11.01
				c31.65,132.08,158.23,221.52,295.81,203.63c52.28-6.88,99.06-28.89,137.59-60.54c52.28,94.93,159.6,152.72,273.8,138.96
				c126.58-16.51,221.52-118.32,236.65-239.4c62.95,41.31,138.55,58.87,213.26,49.53c173.36-22.01,295.81-181.61,272.42-354.97
				C2814.17,835.94,2749.51,749.26,2662.83,702.48z"/>
		</g>
	</g>
	<g>
		<defs>
			<rect id="SVGID_11_" x="1096.15" y="-2945.47" width="1919.5" height="261.5"/>
		</defs>
		<clipPath id="SVGID_12_">
			<use xlink:href="#SVGID_11_"  style="overflow:visible;"/>
		</clipPath>
		<rect x="1096.15" y="-2945.47" class="st21" width="1920" height="6831"/>
		<g id="Web_1920_3_5_" class="st22">
			<rect x="1096.15" y="-2945.47" class="st0" width="1920" height="6831"/>
			<rect id="Rectangle_44_5_" x="1096.15" y="-2945.47" class="st5" width="1919.8" height="6688.5"/>
			<path id="Path_5423_5_" class="st1" d="M2819.81-370.64c-15.57,0-29.72,1.41-43.87,2.83
				c-16.98-169.82-159.91-301.43-333.98-301.43c-46.7-150.01-185.39-257.56-349.54-257.56c-148.59,0-274.54,87.74-332.56,215.1
				c-32.55-7.08-65.1-11.32-99.06-11.32c-246.24,0-445.78,199.54-445.78,445.78c-0.05,28.05,2.8,56.03,8.49,83.49
				c-80.99,67.55-127.68,167.67-127.36,273.13c0,193.88,158.5,352.37,355.21,352.37c89.15,0,169.82-32.55,233.5-87.74
				c41.36,22.14,87.52,33.8,134.44,33.96c69.34,0,131.61-24.06,181.14-65.1c69.34,60.85,158.5,97.65,257.56,97.65
				c106.14,0,203.78-42.45,273.13-111.8c72.17,76.42,174.06,124.53,287.28,124.53c219.35,0,397.66-178.31,397.66-397.66
				C3217.47-193.74,3039.16-370.64,2819.81-370.64z"/>
			<g id="Group_218_5_" transform="translate(556.203 2924.125)">
				<text transform="matrix(1 -2.059487e-03 2.059487e-03 1 1096.2819 -2879.6958)" class="st0 st15 st16">Branding</text>
			</g>
			<path id="Path_5424_5_" class="st0" d="M2662.83,702.48c12.38-44.03,16.51-90.81,9.63-138.96
				c-24.77-187.12-192.62-319.2-378.36-301.32c-61.91-130.71-203.63-213.26-356.35-194c-133.46,17.89-239.4,108.69-282.05,228.39
				c-34.4-6.88-70.17-9.63-107.32-4.13c-129.81,17.16-235.79,112.22-266.92,239.4c-6.88,0-13.76,1.38-20.64,1.38
				C1073.7,558.02,940.24,730,965.01,917.12c24.77,188.49,196.75,320.58,385.24,297.19c16.51-2.75,33.02-5.5,48.15-11.01
				c31.65,132.08,158.23,221.52,295.81,203.63c52.28-6.88,99.06-28.89,137.59-60.54c52.28,94.93,159.6,152.72,273.8,138.96
				c126.58-16.51,221.52-118.32,236.65-239.4c62.95,41.31,138.55,58.87,213.26,49.53c173.36-22.01,295.81-181.61,272.42-354.97
				C2814.17,835.94,2749.51,749.26,2662.83,702.48z"/>
		</g>
	</g>
	<g>
		<defs>
			<rect id="SVGID_13_" x="1096.15" y="-2945.47" width="1919.5" height="261.5"/>
		</defs>
		<clipPath id="SVGID_14_">
			<use xlink:href="#SVGID_13_"  style="overflow:visible;"/>
		</clipPath>
		<rect x="1096.15" y="-2945.47" class="st23" width="1920" height="6831"/>
		<g id="Web_1920_3_6_" class="st24">
			<rect x="1096.15" y="-2945.47" class="st0" width="1920" height="6831"/>
			<rect id="Rectangle_44_6_" x="1096.15" y="-2945.47" class="st5" width="1919.8" height="6688.5"/>
			<path id="Path_5423_6_" class="st1" d="M2819.81-370.64c-15.57,0-29.72,1.41-43.87,2.83
				c-16.98-169.82-159.91-301.43-333.98-301.43c-46.7-150.01-185.39-257.56-349.54-257.56c-148.59,0-274.54,87.74-332.56,215.1
				c-32.55-7.08-65.1-11.32-99.06-11.32c-246.24,0-445.78,199.54-445.78,445.78c-0.05,28.05,2.8,56.03,8.49,83.49
				c-80.99,67.55-127.68,167.67-127.36,273.13c0,193.88,158.5,352.37,355.21,352.37c89.15,0,169.82-32.55,233.5-87.74
				c41.36,22.14,87.52,33.8,134.44,33.96c69.34,0,131.61-24.06,181.14-65.1c69.34,60.85,158.5,97.65,257.56,97.65
				c106.14,0,203.78-42.45,273.13-111.8c72.17,76.42,174.06,124.53,287.28,124.53c219.35,0,397.66-178.31,397.66-397.66
				C3217.47-193.74,3039.16-370.64,2819.81-370.64z"/>
			<g id="Group_218_6_" transform="translate(556.203 2924.125)">
				<text transform="matrix(1 -2.059487e-03 2.059487e-03 1 1096.2819 -2879.6958)" class="st0 st15 st16">Branding</text>
			</g>
			<path id="Path_5424_6_" class="st0" d="M2662.83,702.48c12.38-44.03,16.51-90.81,9.63-138.96
				c-24.77-187.12-192.62-319.2-378.36-301.32c-61.91-130.71-203.63-213.26-356.35-194c-133.46,17.89-239.4,108.69-282.05,228.39
				c-34.4-6.88-70.17-9.63-107.32-4.13c-129.81,17.16-235.79,112.22-266.92,239.4c-6.88,0-13.76,1.38-20.64,1.38
				C1073.7,558.02,940.24,730,965.01,917.12c24.77,188.49,196.75,320.58,385.24,297.19c16.51-2.75,33.02-5.5,48.15-11.01
				c31.65,132.08,158.23,221.52,295.81,203.63c52.28-6.88,99.06-28.89,137.59-60.54c52.28,94.93,159.6,152.72,273.8,138.96
				c126.58-16.51,221.52-118.32,236.65-239.4c62.95,41.31,138.55,58.87,213.26,49.53c173.36-22.01,295.81-181.61,272.42-354.97
				C2814.17,835.94,2749.51,749.26,2662.83,702.48z"/>
		</g>
	</g>
	<g>
		<defs>
			<rect id="SVGID_15_" x="1096.15" y="-2945.47" width="1919.5" height="261.5"/>
		</defs>
		<clipPath id="SVGID_16_">
			<use xlink:href="#SVGID_15_"  style="overflow:visible;"/>
		</clipPath>
		<rect x="1096.15" y="-2945.47" class="st25" width="1920" height="6831"/>
		<g id="Web_1920_3_7_" class="st26">
			<rect x="1096.15" y="-2945.47" class="st0" width="1920" height="6831"/>
			<rect id="Rectangle_44_7_" x="1096.15" y="-2945.47" class="st5" width="1919.8" height="6688.5"/>
			<path id="Path_5423_7_" class="st1" d="M2819.81-370.64c-15.57,0-29.72,1.41-43.87,2.83
				c-16.98-169.82-159.91-301.43-333.98-301.43c-46.7-150.01-185.39-257.56-349.54-257.56c-148.59,0-274.54,87.74-332.56,215.1
				c-32.55-7.08-65.1-11.32-99.06-11.32c-246.24,0-445.78,199.54-445.78,445.78c-0.05,28.05,2.8,56.03,8.49,83.49
				c-80.99,67.55-127.68,167.67-127.36,273.13c0,193.88,158.5,352.37,355.21,352.37c89.15,0,169.82-32.55,233.5-87.74
				c41.36,22.14,87.52,33.8,134.44,33.96c69.34,0,131.61-24.06,181.14-65.1c69.34,60.85,158.5,97.65,257.56,97.65
				c106.14,0,203.78-42.45,273.13-111.8c72.17,76.42,174.06,124.53,287.28,124.53c219.35,0,397.66-178.31,397.66-397.66
				C3217.47-193.74,3039.16-370.64,2819.81-370.64z"/>
			<g id="Group_218_7_" transform="translate(556.203 2924.125)">
				<text transform="matrix(1 -2.059487e-03 2.059487e-03 1 1096.2819 -2879.6958)" class="st0 st15 st16">Branding</text>
			</g>
			<path id="Path_5424_7_" class="st0" d="M2662.83,702.48c12.38-44.03,16.51-90.81,9.63-138.96
				c-24.77-187.12-192.62-319.2-378.36-301.32c-61.91-130.71-203.63-213.26-356.35-194c-133.46,17.89-239.4,108.69-282.05,228.39
				c-34.4-6.88-70.17-9.63-107.32-4.13c-129.81,17.16-235.79,112.22-266.92,239.4c-6.88,0-13.76,1.38-20.64,1.38
				C1073.7,558.02,940.24,730,965.01,917.12c24.77,188.49,196.75,320.58,385.24,297.19c16.51-2.75,33.02-5.5,48.15-11.01
				c31.65,132.08,158.23,221.52,295.81,203.63c52.28-6.88,99.06-28.89,137.59-60.54c52.28,94.93,159.6,152.72,273.8,138.96
				c126.58-16.51,221.52-118.32,236.65-239.4c62.95,41.31,138.55,58.87,213.26,49.53c173.36-22.01,295.81-181.61,272.42-354.97
				C2814.17,835.94,2749.51,749.26,2662.83,702.48z"/>
		</g>
	</g>
	<g>
		<defs>
			<rect id="SVGID_17_" x="1096.15" y="-2945.47" width="1919.5" height="261.5"/>
		</defs>
		<clipPath id="SVGID_18_">
			<use xlink:href="#SVGID_17_"  style="overflow:visible;"/>
		</clipPath>
		<rect x="1096.15" y="-2945.47" class="st27" width="1920" height="6831"/>
		<g id="Web_1920_3_8_" class="st28">
			<rect x="1096.15" y="-2945.47" class="st0" width="1920" height="6831"/>
			<rect id="Rectangle_44_8_" x="1096.15" y="-2945.47" class="st5" width="1919.8" height="6688.5"/>
			<path id="Path_5423_8_" class="st1" d="M2819.81-370.64c-15.57,0-29.72,1.41-43.87,2.83
				c-16.98-169.82-159.91-301.43-333.98-301.43c-46.7-150.01-185.39-257.56-349.54-257.56c-148.59,0-274.54,87.74-332.56,215.1
				c-32.55-7.08-65.1-11.32-99.06-11.32c-246.24,0-445.78,199.54-445.78,445.78c-0.05,28.05,2.8,56.03,8.49,83.49
				c-80.99,67.55-127.68,167.67-127.36,273.13c0,193.88,158.5,352.37,355.21,352.37c89.15,0,169.82-32.55,233.5-87.74
				c41.36,22.14,87.52,33.8,134.44,33.96c69.34,0,131.61-24.06,181.14-65.1c69.34,60.85,158.5,97.65,257.56,97.65
				c106.14,0,203.78-42.45,273.13-111.8c72.17,76.42,174.06,124.53,287.28,124.53c219.35,0,397.66-178.31,397.66-397.66
				C3217.47-193.74,3039.16-370.64,2819.81-370.64z"/>
			<g id="Group_218_8_" transform="translate(556.203 2924.125)">
				<text transform="matrix(1 -2.059487e-03 2.059487e-03 1 1096.2819 -2879.6958)" class="st0 st15 st16">Branding</text>
			</g>
			<path id="Path_5424_8_" class="st0" d="M2662.83,702.48c12.38-44.03,16.51-90.81,9.63-138.96
				c-24.77-187.12-192.62-319.2-378.36-301.32c-61.91-130.71-203.63-213.26-356.35-194c-133.46,17.89-239.4,108.69-282.05,228.39
				c-34.4-6.88-70.17-9.63-107.32-4.13c-129.81,17.16-235.79,112.22-266.92,239.4c-6.88,0-13.76,1.38-20.64,1.38
				C1073.7,558.02,940.24,730,965.01,917.12c24.77,188.49,196.75,320.58,385.24,297.19c16.51-2.75,33.02-5.5,48.15-11.01
				c31.65,132.08,158.23,221.52,295.81,203.63c52.28-6.88,99.06-28.89,137.59-60.54c52.28,94.93,159.6,152.72,273.8,138.96
				c126.58-16.51,221.52-118.32,236.65-239.4c62.95,41.31,138.55,58.87,213.26,49.53c173.36-22.01,295.81-181.61,272.42-354.97
				C2814.17,835.94,2749.51,749.26,2662.83,702.48z"/>
		</g>
	</g>
	<g>
		<defs>
			<rect id="SVGID_19_" x="1096.15" y="-2945.47" width="1919.5" height="261.5"/>
		</defs>
		<clipPath id="SVGID_20_">
			<use xlink:href="#SVGID_19_"  style="overflow:visible;"/>
		</clipPath>
		<rect x="1096.15" y="-2945.47" class="st29" width="1920" height="6831"/>
		<g id="Web_1920_3_9_" class="st30">
			<rect x="1096.15" y="-2945.47" class="st0" width="1920" height="6831"/>
			<rect id="Rectangle_44_9_" x="1096.15" y="-2945.47" class="st5" width="1919.8" height="6688.5"/>
			<path id="Path_5423_9_" class="st1" d="M2819.81-370.64c-15.57,0-29.72,1.41-43.87,2.83
				c-16.98-169.82-159.91-301.43-333.98-301.43c-46.7-150.01-185.39-257.56-349.54-257.56c-148.59,0-274.54,87.74-332.56,215.1
				c-32.55-7.08-65.1-11.32-99.06-11.32c-246.24,0-445.78,199.54-445.78,445.78c-0.05,28.05,2.8,56.03,8.49,83.49
				c-80.99,67.55-127.68,167.67-127.36,273.13c0,193.88,158.5,352.37,355.21,352.37c89.15,0,169.82-32.55,233.5-87.74
				c41.36,22.14,87.52,33.8,134.44,33.96c69.34,0,131.61-24.06,181.14-65.1c69.34,60.85,158.5,97.65,257.56,97.65
				c106.14,0,203.78-42.45,273.13-111.8c72.17,76.42,174.06,124.53,287.28,124.53c219.35,0,397.66-178.31,397.66-397.66
				C3217.47-193.74,3039.16-370.64,2819.81-370.64z"/>
			<g id="Group_218_9_" transform="translate(556.203 2924.125)">
				<text transform="matrix(1 -2.059487e-03 2.059487e-03 1 1096.2819 -2879.6958)" class="st0 st15 st16">Branding</text>
			</g>
			<path id="Path_5424_9_" class="st0" d="M2662.83,702.48c12.38-44.03,16.51-90.81,9.63-138.96
				c-24.77-187.12-192.62-319.2-378.36-301.32c-61.91-130.71-203.63-213.26-356.35-194c-133.46,17.89-239.4,108.69-282.05,228.39
				c-34.4-6.88-70.17-9.63-107.32-4.13c-129.81,17.16-235.79,112.22-266.92,239.4c-6.88,0-13.76,1.38-20.64,1.38
				C1073.7,558.02,940.24,730,965.01,917.12c24.77,188.49,196.75,320.58,385.24,297.19c16.51-2.75,33.02-5.5,48.15-11.01
				c31.65,132.08,158.23,221.52,295.81,203.63c52.28-6.88,99.06-28.89,137.59-60.54c52.28,94.93,159.6,152.72,273.8,138.96
				c126.58-16.51,221.52-118.32,236.65-239.4c62.95,41.31,138.55,58.87,213.26,49.53c173.36-22.01,295.81-181.61,272.42-354.97
				C2814.17,835.94,2749.51,749.26,2662.83,702.48z"/>
		</g>
	</g>
	<g>
		<defs>
			<rect id="SVGID_21_" x="1096.15" y="-2945.47" width="1919.5" height="261.5"/>
		</defs>
		<clipPath id="SVGID_22_">
			<use xlink:href="#SVGID_21_"  style="overflow:visible;"/>
		</clipPath>
		<rect x="1096.15" y="-2945.47" class="st31" width="1920" height="6831"/>
		<g id="Web_1920_3_10_" class="st32">
			<rect x="1096.15" y="-2945.47" class="st0" width="1920" height="6831"/>
			<rect id="Rectangle_44_10_" x="1096.15" y="-2945.47" class="st5" width="1919.8" height="6688.5"/>
			<path id="Path_5423_10_" class="st1" d="M2819.81-370.64c-15.57,0-29.72,1.41-43.87,2.83
				c-16.98-169.82-159.91-301.43-333.98-301.43c-46.7-150.01-185.39-257.56-349.54-257.56c-148.59,0-274.54,87.74-332.56,215.1
				c-32.55-7.08-65.1-11.32-99.06-11.32c-246.24,0-445.78,199.54-445.78,445.78c-0.05,28.05,2.8,56.03,8.49,83.49
				c-80.99,67.55-127.68,167.67-127.36,273.13c0,193.88,158.5,352.37,355.21,352.37c89.15,0,169.82-32.55,233.5-87.74
				c41.36,22.14,87.52,33.8,134.44,33.96c69.34,0,131.61-24.06,181.14-65.1c69.34,60.85,158.5,97.65,257.56,97.65
				c106.14,0,203.78-42.45,273.13-111.8c72.17,76.42,174.06,124.53,287.28,124.53c219.35,0,397.66-178.31,397.66-397.66
				C3217.47-193.74,3039.16-370.64,2819.81-370.64z"/>
			<g id="Group_218_10_" transform="translate(556.203 2924.125)">
				<text transform="matrix(1 -2.059487e-03 2.059487e-03 1 1096.2819 -2879.6958)" class="st0 st15 st16">Branding</text>
			</g>
			<path id="Path_5424_10_" class="st0" d="M2662.83,702.48c12.38-44.03,16.51-90.81,9.63-138.96
				c-24.77-187.12-192.62-319.2-378.36-301.32c-61.91-130.71-203.63-213.26-356.35-194c-133.46,17.89-239.4,108.69-282.05,228.39
				c-34.4-6.88-70.17-9.63-107.32-4.13c-129.81,17.16-235.79,112.22-266.92,239.4c-6.88,0-13.76,1.38-20.64,1.38
				C1073.7,558.02,940.24,730,965.01,917.12c24.77,188.49,196.75,320.58,385.24,297.19c16.51-2.75,33.02-5.5,48.15-11.01
				c31.65,132.08,158.23,221.52,295.81,203.63c52.28-6.88,99.06-28.89,137.59-60.54c52.28,94.93,159.6,152.72,273.8,138.96
				c126.58-16.51,221.52-118.32,236.65-239.4c62.95,41.31,138.55,58.87,213.26,49.53c173.36-22.01,295.81-181.61,272.42-354.97
				C2814.17,835.94,2749.51,749.26,2662.83,702.48z"/>
		</g>
	</g>
	<g>
		<defs>
			<rect id="SVGID_23_" x="1096.15" y="-2945.47" width="1919.5" height="261.5"/>
		</defs>
		<clipPath id="SVGID_24_">
			<use xlink:href="#SVGID_23_"  style="overflow:visible;"/>
		</clipPath>
		<rect x="1096.15" y="-2945.47" class="st33" width="1920" height="6831"/>
		<g id="Web_1920_3_11_" class="st34">
			<rect x="1096.15" y="-2945.47" class="st0" width="1920" height="6831"/>
			<rect id="Rectangle_44_11_" x="1096.15" y="-2945.47" class="st5" width="1919.8" height="6688.5"/>
			<path id="Path_5423_11_" class="st1" d="M2819.81-370.64c-15.57,0-29.72,1.41-43.87,2.83
				c-16.98-169.82-159.91-301.43-333.98-301.43c-46.7-150.01-185.39-257.56-349.54-257.56c-148.59,0-274.54,87.74-332.56,215.1
				c-32.55-7.08-65.1-11.32-99.06-11.32c-246.24,0-445.78,199.54-445.78,445.78c-0.05,28.05,2.8,56.03,8.49,83.49
				c-80.99,67.55-127.68,167.67-127.36,273.13c0,193.88,158.5,352.37,355.21,352.37c89.15,0,169.82-32.55,233.5-87.74
				c41.36,22.14,87.52,33.8,134.44,33.96c69.34,0,131.61-24.06,181.14-65.1c69.34,60.85,158.5,97.65,257.56,97.65
				c106.14,0,203.78-42.45,273.13-111.8c72.17,76.42,174.06,124.53,287.28,124.53c219.35,0,397.66-178.31,397.66-397.66
				C3217.47-193.74,3039.16-370.64,2819.81-370.64z"/>
			<g id="Group_218_11_" transform="translate(556.203 2924.125)">
				<text transform="matrix(1 -2.059487e-03 2.059487e-03 1 1096.2819 -2879.6958)" class="st0 st15 st16">Branding</text>
			</g>
			<path id="Path_5424_11_" class="st0" d="M2662.83,702.48c12.38-44.03,16.51-90.81,9.63-138.96
				c-24.77-187.12-192.62-319.2-378.36-301.32c-61.91-130.71-203.63-213.26-356.35-194c-133.46,17.89-239.4,108.69-282.05,228.39
				c-34.4-6.88-70.17-9.63-107.32-4.13c-129.81,17.16-235.79,112.22-266.92,239.4c-6.88,0-13.76,1.38-20.64,1.38
				C1073.7,558.02,940.24,730,965.01,917.12c24.77,188.49,196.75,320.58,385.24,297.19c16.51-2.75,33.02-5.5,48.15-11.01
				c31.65,132.08,158.23,221.52,295.81,203.63c52.28-6.88,99.06-28.89,137.59-60.54c52.28,94.93,159.6,152.72,273.8,138.96
				c126.58-16.51,221.52-118.32,236.65-239.4c62.95,41.31,138.55,58.87,213.26,49.53c173.36-22.01,295.81-181.61,272.42-354.97
				C2814.17,835.94,2749.51,749.26,2662.83,702.48z"/>
		</g>
	</g>
	<g>
		<defs>
			<rect id="SVGID_25_" x="1096.15" y="-2945.47" width="1919.5" height="261.5"/>
		</defs>
		<clipPath id="SVGID_26_">
			<use xlink:href="#SVGID_25_"  style="overflow:visible;"/>
		</clipPath>
		<rect x="1096.15" y="-2945.47" class="st35" width="1920" height="6831"/>
		<g id="Web_1920_3_12_" class="st36">
			<rect x="1096.15" y="-2945.47" class="st0" width="1920" height="6831"/>
			<rect id="Rectangle_44_12_" x="1096.15" y="-2945.47" class="st5" width="1919.8" height="6688.5"/>
			<path id="Path_5423_12_" class="st1" d="M2819.81-370.64c-15.57,0-29.72,1.41-43.87,2.83
				c-16.98-169.82-159.91-301.43-333.98-301.43c-46.7-150.01-185.39-257.56-349.54-257.56c-148.59,0-274.54,87.74-332.56,215.1
				c-32.55-7.08-65.1-11.32-99.06-11.32c-246.24,0-445.78,199.54-445.78,445.78c-0.05,28.05,2.8,56.03,8.49,83.49
				c-80.99,67.55-127.68,167.67-127.36,273.13c0,193.88,158.5,352.37,355.21,352.37c89.15,0,169.82-32.55,233.5-87.74
				c41.36,22.14,87.52,33.8,134.44,33.96c69.34,0,131.61-24.06,181.14-65.1c69.34,60.85,158.5,97.65,257.56,97.65
				c106.14,0,203.78-42.45,273.13-111.8c72.17,76.42,174.06,124.53,287.28,124.53c219.35,0,397.66-178.31,397.66-397.66
				C3217.47-193.74,3039.16-370.64,2819.81-370.64z"/>
			<g id="Group_218_12_" transform="translate(556.203 2924.125)">
				<text transform="matrix(1 -2.059487e-03 2.059487e-03 1 1096.2819 -2879.6958)" class="st0 st15 st16">Branding</text>
			</g>
			<path id="Path_5424_12_" class="st0" d="M2662.83,702.48c12.38-44.03,16.51-90.81,9.63-138.96
				c-24.77-187.12-192.62-319.2-378.36-301.32c-61.91-130.71-203.63-213.26-356.35-194c-133.46,17.89-239.4,108.69-282.05,228.39
				c-34.4-6.88-70.17-9.63-107.32-4.13c-129.81,17.16-235.79,112.22-266.92,239.4c-6.88,0-13.76,1.38-20.64,1.38
				C1073.7,558.02,940.24,730,965.01,917.12c24.77,188.49,196.75,320.58,385.24,297.19c16.51-2.75,33.02-5.5,48.15-11.01
				c31.65,132.08,158.23,221.52,295.81,203.63c52.28-6.88,99.06-28.89,137.59-60.54c52.28,94.93,159.6,152.72,273.8,138.96
				c126.58-16.51,221.52-118.32,236.65-239.4c62.95,41.31,138.55,58.87,213.26,49.53c173.36-22.01,295.81-181.61,272.42-354.97
				C2814.17,835.94,2749.51,749.26,2662.83,702.48z"/>
		</g>
	</g>
	<g>
		<defs>
			<rect id="SVGID_27_" x="1096.15" y="-2945.47" width="1919.5" height="261.5"/>
		</defs>
		<clipPath id="SVGID_28_">
			<use xlink:href="#SVGID_27_"  style="overflow:visible;"/>
		</clipPath>
		<rect x="1096.15" y="-2945.47" class="st37" width="1920" height="6831"/>
		<g id="Web_1920_3_13_" class="st38">
			<rect x="1096.15" y="-2945.47" class="st0" width="1920" height="6831"/>
			<rect id="Rectangle_44_13_" x="1096.15" y="-2945.47" class="st5" width="1919.8" height="6688.5"/>
			<path id="Path_5423_13_" class="st1" d="M2819.81-370.64c-15.57,0-29.72,1.41-43.87,2.83
				c-16.98-169.82-159.91-301.43-333.98-301.43c-46.7-150.01-185.39-257.56-349.54-257.56c-148.59,0-274.54,87.74-332.56,215.1
				c-32.55-7.08-65.1-11.32-99.06-11.32c-246.24,0-445.78,199.54-445.78,445.78c-0.05,28.05,2.8,56.03,8.49,83.49
				c-80.99,67.55-127.68,167.67-127.36,273.13c0,193.88,158.5,352.37,355.21,352.37c89.15,0,169.82-32.55,233.5-87.74
				c41.36,22.14,87.52,33.8,134.44,33.96c69.34,0,131.61-24.06,181.14-65.1c69.34,60.85,158.5,97.65,257.56,97.65
				c106.14,0,203.78-42.45,273.13-111.8c72.17,76.42,174.06,124.53,287.28,124.53c219.35,0,397.66-178.31,397.66-397.66
				C3217.47-193.74,3039.16-370.64,2819.81-370.64z"/>
			<g id="Group_218_13_" transform="translate(556.203 2924.125)">
				<text transform="matrix(1 -2.059487e-03 2.059487e-03 1 1096.2819 -2879.6958)" class="st0 st15 st16">Branding</text>
			</g>
			<path id="Path_5424_13_" class="st0" d="M2662.83,702.48c12.38-44.03,16.51-90.81,9.63-138.96
				c-24.77-187.12-192.62-319.2-378.36-301.32c-61.91-130.71-203.63-213.26-356.35-194c-133.46,17.89-239.4,108.69-282.05,228.39
				c-34.4-6.88-70.17-9.63-107.32-4.13c-129.81,17.16-235.79,112.22-266.92,239.4c-6.88,0-13.76,1.38-20.64,1.38
				C1073.7,558.02,940.24,730,965.01,917.12c24.77,188.49,196.75,320.58,385.24,297.19c16.51-2.75,33.02-5.5,48.15-11.01
				c31.65,132.08,158.23,221.52,295.81,203.63c52.28-6.88,99.06-28.89,137.59-60.54c52.28,94.93,159.6,152.72,273.8,138.96
				c126.58-16.51,221.52-118.32,236.65-239.4c62.95,41.31,138.55,58.87,213.26,49.53c173.36-22.01,295.81-181.61,272.42-354.97
				C2814.17,835.94,2749.51,749.26,2662.83,702.48z"/>
		</g>
	</g>
</g>
<g id="Layer_4">
	<g>
		<defs>
			<rect id="SVGID_29_" x="1096.15" y="-2945.47" width="1919.5" height="261.5"/>
		</defs>
		<clipPath id="SVGID_30_">
			<use xlink:href="#SVGID_29_"  style="overflow:visible;"/>
		</clipPath>
		<rect x="1096.15" y="-2945.47" class="st39" width="1920" height="6831"/>
		<g id="Web_1920_3_14_" class="st40">
			<rect x="1096.15" y="-2945.47" class="st0" width="1920" height="6831"/>
			<rect id="Rectangle_44_14_" x="1096.15" y="-2945.47" class="st5" width="1919.8" height="6688.5"/>
			<path id="Path_5423_14_" class="st1" d="M2819.81-370.64c-15.57,0-29.72,1.41-43.87,2.83
				c-16.98-169.82-159.91-301.43-333.98-301.43c-46.7-150.01-185.39-257.56-349.54-257.56c-148.59,0-274.54,87.74-332.56,215.1
				c-32.55-7.08-65.1-11.32-99.06-11.32c-246.24,0-445.78,199.54-445.78,445.78c-0.05,28.05,2.8,56.03,8.49,83.49
				c-80.99,67.55-127.68,167.67-127.36,273.13c0,193.88,158.5,352.37,355.21,352.37c89.15,0,169.82-32.55,233.5-87.74
				c41.36,22.14,87.52,33.8,134.44,33.96c69.34,0,131.61-24.06,181.14-65.1c69.34,60.85,158.5,97.65,257.56,97.65
				c106.14,0,203.78-42.45,273.13-111.8c72.17,76.42,174.06,124.53,287.28,124.53c219.35,0,397.66-178.31,397.66-397.66
				C3217.47-193.74,3039.16-370.64,2819.81-370.64z"/>
			<g id="Group_218_14_" transform="translate(556.203 2924.125)">
				<text transform="matrix(1 -2.059487e-03 2.059487e-03 1 1096.2819 -2879.6958)" class="st0 st15 st16">Branding</text>
			</g>
			<path id="Path_5424_14_" class="st0" d="M2662.83,702.48c12.38-44.03,16.51-90.81,9.63-138.96
				c-24.77-187.12-192.62-319.2-378.36-301.32c-61.91-130.71-203.63-213.26-356.35-194c-133.46,17.89-239.4,108.69-282.05,228.39
				c-34.4-6.88-70.17-9.63-107.32-4.13c-129.81,17.16-235.79,112.22-266.92,239.4c-6.88,0-13.76,1.38-20.64,1.38
				C1073.7,558.02,940.24,730,965.01,917.12c24.77,188.49,196.75,320.58,385.24,297.19c16.51-2.75,33.02-5.5,48.15-11.01
				c31.65,132.08,158.23,221.52,295.81,203.63c52.28-6.88,99.06-28.89,137.59-60.54c52.28,94.93,159.6,152.72,273.8,138.96
				c126.58-16.51,221.52-118.32,236.65-239.4c62.95,41.31,138.55,58.87,213.26,49.53c173.36-22.01,295.81-181.61,272.42-354.97
				C2814.17,835.94,2749.51,749.26,2662.83,702.48z"/>
		</g>
	</g>
	<g>
		<defs>
			<rect id="SVGID_31_" x="1096.15" y="-2945.47" width="1919.5" height="261.5"/>
		</defs>
		<clipPath id="SVGID_32_">
			<use xlink:href="#SVGID_31_"  style="overflow:visible;"/>
		</clipPath>
		<rect x="1096.15" y="-2945.47" class="st41" width="1920" height="6831"/>
		<g id="Web_1920_3_15_" class="st42">
			<rect x="1096.15" y="-2945.47" class="st0" width="1920" height="6831"/>
			<rect id="Rectangle_44_15_" x="1096.15" y="-2945.47" class="st5" width="1919.8" height="6688.5"/>
			<path id="Path_5423_15_" class="st1" d="M2819.81-370.64c-15.57,0-29.72,1.41-43.87,2.83
				c-16.98-169.82-159.91-301.43-333.98-301.43c-46.7-150.01-185.39-257.56-349.54-257.56c-148.59,0-274.54,87.74-332.56,215.1
				c-32.55-7.08-65.1-11.32-99.06-11.32c-246.24,0-445.78,199.54-445.78,445.78c-0.05,28.05,2.8,56.03,8.49,83.49
				c-80.99,67.55-127.68,167.67-127.36,273.13c0,193.88,158.5,352.37,355.21,352.37c89.15,0,169.82-32.55,233.5-87.74
				c41.36,22.14,87.52,33.8,134.44,33.96c69.34,0,131.61-24.06,181.14-65.1c69.34,60.85,158.5,97.65,257.56,97.65
				c106.14,0,203.78-42.45,273.13-111.8c72.17,76.42,174.06,124.53,287.28,124.53c219.35,0,397.66-178.31,397.66-397.66
				C3217.47-193.74,3039.16-370.64,2819.81-370.64z"/>
			<g id="Group_218_15_" transform="translate(556.203 2924.125)">
				<text transform="matrix(1 -2.059487e-03 2.059487e-03 1 1096.2819 -2879.6958)" class="st0 st15 st16">Branding</text>
			</g>
			<path id="Path_5424_15_" class="st0" d="M2662.83,702.48c12.38-44.03,16.51-90.81,9.63-138.96
				c-24.77-187.12-192.62-319.2-378.36-301.32c-61.91-130.71-203.63-213.26-356.35-194c-133.46,17.89-239.4,108.69-282.05,228.39
				c-34.4-6.88-70.17-9.63-107.32-4.13c-129.81,17.16-235.79,112.22-266.92,239.4c-6.88,0-13.76,1.38-20.64,1.38
				C1073.7,558.02,940.24,730,965.01,917.12c24.77,188.49,196.75,320.58,385.24,297.19c16.51-2.75,33.02-5.5,48.15-11.01
				c31.65,132.08,158.23,221.52,295.81,203.63c52.28-6.88,99.06-28.89,137.59-60.54c52.28,94.93,159.6,152.72,273.8,138.96
				c126.58-16.51,221.52-118.32,236.65-239.4c62.95,41.31,138.55,58.87,213.26,49.53c173.36-22.01,295.81-181.61,272.42-354.97
				C2814.17,835.94,2749.51,749.26,2662.83,702.48z"/>
		</g>
	</g>
	<g>
		<defs>
			<rect id="SVGID_33_" x="0.08" y="0.04" width="1919.5" height="261.5"/>
		</defs>
		<clipPath id="SVGID_34_">
			<use xlink:href="#SVGID_33_"  style="overflow:visible;"/>
		</clipPath>
		<rect x="0.08" y="0.04" class="st43" width="1920" height="6831"/>
		<g id="Web_1920_3_16_" class="st44">
			<rect x="0.08" y="0.04" class="st0" width="1920" height="6831"/>
			<rect id="Rectangle_44_16_" x="0.08" y="0.04" class="st5" width="1919.8" height="6688.5"/>
			<g id="Rectangle_55_16_" transform="translate(0 261)">
				<rect x="0.08" y="0.04" class="st1" width="1920" height="214"/>
				<rect x="0.58" y="0.54" class="st6" width="1919" height="213"/>
			</g>
			<g id="Group_204_16_" transform="translate(837.13 66.245)">
				<g id="Group_185_16_" transform="translate(171.56 54.217)">
					<path id="Path_5328_16_" class="st1" d="M56.69,46.24c-2.04,3.62-4.95,6.67-8.46,8.89c-5.09,3.91-11.36,5.98-17.79,5.86h-0.86
						c-8.24,0-15.83-3.9-22.99-11.5c-4.34-6.07-6.51-12.36-6.51-18.87c0-11.06,5.21-19.95,15.83-26.68
						c4.62-2.45,9.74-3.79,14.97-3.91c10.19,0,18.87,4.77,25.59,14.53l0.43,0.65c0.22-1.08,1.74-5.21,4.34-12.15
						c1.52-1.95,3.25-3.04,5.21-3.04c3.9,0.65,5.64,2.82,5.64,6.07c-0.22,1.08-3.25,9.11-8.89,24.51
						c5.86,15.4,8.89,23.86,8.89,24.72c-0.87,3.9-2.82,5.64-5.86,5.64c-3.47,0-6.07-3.47-7.81-10.19L56.69,46.24z M11.79,30.41
						c0,7.59,3.69,13.45,11.28,17.35c2.55,1.02,5.28,1.54,8.03,1.52c7.16,0,12.8-3.69,16.92-11.28l2.6-7.59
						c-2.17-7.59-5.21-12.58-9.11-15.18c-3-2.26-6.65-3.48-10.41-3.47h-0.87c-6.72,0-12.15,3.25-16.27,9.76
						C12.57,24.28,11.84,27.32,11.79,30.41L11.79,30.41z"/>
				</g>
				<g id="Group_186_16_" transform="translate(0 52.265)">
					<path id="Path_5329_16_" class="st8" d="M61.68,1.34c-13.54,0-24.51,10.97-24.51,24.51c0,13.54,10.97,24.51,24.51,24.51
						s24.51-10.97,24.51-24.51c0,0,0,0,0,0C86.12,12.34,75.19,1.4,61.68,1.34z M69.05,28.02c-5.03,0-9.11-4.08-9.11-9.11
						c0-5.03,4.08-9.11,9.11-9.11c5.03,0,9.11,4.08,9.11,9.11C78.13,23.93,74.07,27.99,69.05,28.02z"/>
					<path id="Path_5330_16_" class="st8" d="M132.17,1.56c-13.57-0.08-24.64,10.85-24.72,24.43c0,0.1,0,0.2,0,0.3
						c0,13.88,11.06,24.07,24.72,24.07c5.64,0,10.19-1.3,14.53-4.99c0.16,2.61,2.18,4.72,4.77,4.99c2.64,0.12,4.87-1.93,4.99-4.57
						c0.01-0.14,0.01-0.28,0-0.42V26.28C156.24,12.62,146.05,1.56,132.17,1.56z M140.41,28.02c-5.03,0-9.11-4.08-9.11-9.11
						s4.08-9.11,9.11-9.11c5.03,0,9.11,4.08,9.11,9.11C149.49,23.93,145.43,27.99,140.41,28.02z"/>
					<path id="Path_5331_16_" class="st8" d="M118.5,54.69h-16.48V6.98c0-2.87-2.33-5.21-5.21-5.21s-5.21,2.33-5.21,5.21V58.6
						c0.04,2.86,2.35,5.17,5.2,5.21c0.44,0.03,0.89-0.04,1.3-0.22h20.39c2.48-0.09,4.46-2.08,4.56-4.56
						C122.95,56.6,120.94,54.69,118.5,54.69z"/>
					<path id="Path_5332_16_" class="st8" d="M39.77,4.59c-0.09-2.48-2.08-4.46-4.56-4.56H4.64C2.13,0.05,0.09,2.08,0.08,4.59
						c0.09,2.48,2.08,4.46,4.55,4.55h10.19v49.67c0,2.87,2.33,5.21,5.21,5.21s5.21-2.33,5.21-5.21V9.15h10.19
						C37.6,9.15,39.99,6.98,39.77,4.59z"/>
				</g>
				<g id="Group_187_16_" transform="translate(40.729 0.004)">
					<path id="Path_5333_16_" class="st1" d="M6.85,30.39c0,0-2.82,3.69-6.29,8.02s12.36,5.2,31.23,6.94s76.56-1.08,80.03-4.34
						c2.39-2.17-8.89-10.84-8.89-10.84S67.58,37.33,6.85,30.39z"/>
					<path id="Path_5334_16_" class="st1" d="M9.02,25.62c0,0,32.75,5.2,93.26,0.43c0,0-1.95-17.13-6.29-21.25
						c-5.86-5.64-71.14-6.94-78.73-0.22C12.49,8.92,9.02,25.62,9.02,25.62z"/>
				</g>
			</g>
		</g>
	</g>
</g>
</svg>
