<?xml version="1.0" encoding="utf-8"?>
<!-- Generator: Adobe Illustrator 23.0.1, SVG Export Plug-In . SVG Version: 6.00 Build 0)  -->
<svg version="1.1" id="Layer_1" xmlns="http://www.w3.org/2000/svg" xmlns:xlink="http://www.w3.org/1999/xlink" x="0px" y="0px"
	 viewBox="0 0 750 350" style="enable-background:new 0 0 750 350;" xml:space="preserve">
<style type="text/css">
	.st0{clip-path:url(#SVGID_2_);}
	.st1{fill:#FFFFFF;}
	.st2{fill:#D04954;}
	.st3{fill:#F2CA60;}
	.st4{fill:none;stroke:#707070;}
	.st5{fill:#4F8BC0;}
	.st6{fill:#F6F6F6;}
	.st7{fill:#F0F5F9;}
</style>
<g>
	<path class="st1" d="M483.06,166.18c-5.88,0-10.64,4.76-10.64,10.64c0,5.81,4.76,10.64,10.64,10.64c5.88,0,10.64-4.83,10.64-10.64
		C493.7,170.94,488.94,166.18,483.06,166.18z"/>
	<path class="st1" d="M590.23,166.18c-4.69,0-8.61,3.01-10.08,7.14h20.23C598.91,168.42,594.43,166.18,590.23,166.18z"/>
	<path class="st1" d="M201.88,166.18c-5.88,0-10.64,4.76-10.64,10.64c0,5.81,4.76,10.64,10.64,10.64c5.88,0,10.64-4.83,10.64-10.64
		C212.52,170.94,207.76,166.18,201.88,166.18z"/>
	<path class="st1" d="M631.58,101.75c-6.59,0.13-13.16,0.7-19.67,1.71c-6.14-60.85-60.44-105.2-121.29-99.07
		c-19.87,2-38.84,9.35-54.88,21.25C409.14-0.6,367.38-3.5,337.4,18.8c-15.81-9.75-34.02-14.93-52.59-14.97
		c-40.18-0.06-76.45,24.07-91.93,61.15c-15.46-9.42-33.2-14.44-51.31-14.54c-54.3,0-98.34,44.47-98.34,98.77
		c0,4.28,0.43,8.98,0.85,13.26c-40.79,25.31-53.34,78.9-28.02,119.68c24.16,38.94,74.41,52.43,114.82,30.83
		c19.84,35.45,64.67,48.1,100.12,28.25c8.19-4.58,15.42-10.69,21.31-17.99c16.72,10.75,36.14,16.53,56.02,16.68
		c29.94-0.05,58.36-13.17,77.82-35.92c20.52,21.38,49.17,35.06,80.81,35.06c32.56,0.06,63.5-14.16,84.66-38.91
		c20.52,20.1,48.74,32.07,79.96,32.07c63.74-0.04,115.41-51.7,115.44-115.45C747.03,153.49,695.29,101.75,631.58,101.75z
		 M178.85,193.98c-0.56,0.42-1.26,0.56-1.89,0.56c-1.12,0-2.24-0.56-2.94-1.61l-22.89-32.9v31.08c0,1.89-1.54,3.43-3.43,3.43
		c-1.89,0-3.5-1.54-3.5-3.43v-42.08c-0.14-1.33,0.42-2.66,1.61-3.43c1.61-1.05,3.78-0.63,4.83,1.05l22.82,33.88v-31.99
		c0-1.96,1.61-3.5,3.5-3.5s3.43,1.54,3.43,3.5v42C180.6,191.87,180.04,193.2,178.85,193.98z M201.88,194.4
		c-9.66,0-17.57-7.91-17.57-17.57c0-9.73,7.91-17.57,17.57-17.57c9.73,0,17.57,7.84,17.57,17.57
		C219.45,186.48,211.61,194.4,201.88,194.4z M294.42,174.02v17.01c0,1.96-1.61,3.5-3.5,3.5c-1.89,0-3.43-1.54-3.43-3.5v-17.01
		c0-0.14,0-0.21,0-0.35c0-0.07,0-0.14,0-0.28c0-3.92-3.22-7.07-7.14-7.07c-3.92,0-7.14,3.15-7.14,7.07v17.64
		c0,1.96-1.54,3.5-3.43,3.5c-1.89,0-3.5-1.54-3.5-3.5v-17.64c0-3.92-3.15-7.07-7.07-7.07s-7.14,3.15-7.14,7.07v17.64
		c0,1.96-1.54,3.5-3.43,3.5c-1.96,0-3.5-1.54-3.5-3.5v-17.64c0-7.7,6.3-14,14.07-14c4.2,0,7.98,1.82,10.57,4.83
		c2.59-3.01,6.37-4.83,10.57-4.83c7.77,0,14.07,6.3,14.07,14c0,0.14,0,0.21-0.07,0.28C294.42,173.81,294.42,173.88,294.42,174.02z
		 M327.04,180.32v0.07c-0.07,7.77-6.37,14.07-14.21,14.07c-7.77,0-14.07-6.3-14.14-14.07v-0.07v-17.57c0-1.89,1.54-3.43,3.43-3.43
		c1.96,0,3.5,1.54,3.5,3.43v17.5c0,3.99,3.22,7.28,7.21,7.28c4.06,0,7.28-3.29,7.28-7.28v-17.5c0-1.89,1.54-3.43,3.5-3.43
		c1.89,0,3.43,1.54,3.43,3.43V180.32z M341.8,194.47c-4.97,0-8.96-3.57-10.29-7.63c-0.63-1.82,0.84-3.71,2.66-4.13
		c1.89-0.35,3.22,0.98,4.13,2.73c0.98,1.82,1.82,2.1,3.5,2.1c1.96,0,3.57-1.61,3.57-3.64c0-1.96-1.61-3.57-3.57-3.57
		c-2.8,0-5.46-1.12-7.42-3.08c-2.03-1.96-3.08-4.62-3.08-7.42c0-5.81,4.69-10.5,10.5-10.5c4.9,0,9.38,3.36,10.08,7.28
		c0.35,1.89-0.77,3.78-2.66,4.13c-1.89,0.42-3.5-0.84-4.13-2.59c-0.42-1.12-1.61-1.89-3.29-1.89c-1.96,0-3.57,1.61-3.57,3.57
		c0,1.96,1.61,3.57,3.57,3.57c2.8,0,5.46,1.12,7.42,3.08c2.03,2.03,3.08,4.62,3.08,7.42C352.31,189.7,347.62,194.47,341.8,194.47z
		 M363.36,190.96c0,1.96-1.54,3.5-3.43,3.5c-1.96,0-3.5-1.54-3.5-3.5v-28.21c0-1.89,1.54-3.43,3.5-3.43c1.89,0,3.43,1.54,3.43,3.43
		V190.96z M362.38,151.34c-0.63,0.63-1.54,0.98-2.45,0.98s-1.82-0.35-2.45-0.98c-0.63-0.63-1.05-1.54-1.05-2.45s0.42-1.82,1.05-2.45
		c0.63-0.63,1.54-1.05,2.45-1.05s1.82,0.42,2.45,1.05s0.98,1.54,0.98,2.45S363.01,150.71,362.38,151.34z M384.85,187.53
		c3.64,0,7-1.82,8.96-4.9c1.05-1.61,3.22-2.03,4.83-1.05c1.61,1.05,2.03,3.22,0.98,4.83c-3.22,5.04-8.75,8.05-14.77,8.05
		c-9.66,0-17.5-7.91-17.5-17.57c0-9.73,7.84-17.57,17.5-17.57c6.3,0,12.11,3.36,15.26,8.75c0.98,1.68,0.35,3.78-1.26,4.76
		c-1.68,0.91-3.78,0.35-4.76-1.26c-1.89-3.29-5.39-5.32-9.24-5.32c-5.81,0-10.64,4.76-10.64,10.64
		C374.21,182.7,379.04,187.53,384.85,187.53z M461.36,190.9c0,1.96-1.54,3.5-3.5,3.5c-1.89,0-3.43-1.54-3.43-3.5v-14.07
		c0-5.88-4.76-10.64-10.64-10.64c-5.88,0-10.64,4.76-10.64,10.64v14.07c0,1.96-1.54,3.5-3.5,3.5c-1.89,0-3.43-1.54-3.43-3.5v-14.07
		c0-9.73,7.91-17.57,17.57-17.57s17.57,7.84,17.57,17.57V190.9z M483.06,194.4c-9.66,0-17.57-7.91-17.57-17.57
		c0-9.73,7.91-17.57,17.57-17.57c9.73,0,17.57,7.84,17.57,17.57C500.63,186.48,492.79,194.4,483.06,194.4z M533.25,190.96
		c0,1.96-1.54,3.5-3.43,3.5c-1.96,0-3.5-1.54-3.5-3.5v-45.57c0-1.89,1.54-3.43,3.5-3.43c1.89,0,3.43,1.54,3.43,3.43V190.96z
		 M544.52,190.96c0,1.96-1.54,3.5-3.43,3.5c-1.96,0-3.5-1.54-3.5-3.5v-28.21c0-1.89,1.54-3.43,3.5-3.43c1.89,0,3.43,1.54,3.43,3.43
		V190.96z M543.54,151.34c-0.63,0.63-1.54,0.98-2.45,0.98s-1.82-0.35-2.45-0.98c-0.63-0.63-1.05-1.54-1.05-2.45s0.42-1.82,1.05-2.45
		c0.63-0.63,1.54-1.05,2.45-1.05s1.82,0.42,2.45,1.05c0.63,0.63,0.98,1.54,0.98,2.45S544.17,150.71,543.54,151.34z M569.37,166.18
		h-6.16v24.71c0,1.96-1.54,3.5-3.5,3.5c-1.89,0-3.43-1.54-3.43-3.5v-24.71h-3.85c-1.89,0-3.43-1.54-3.43-3.5
		c0-1.89,1.54-3.43,3.43-3.43h3.85c-0.07-4.97,1.75-9.52,5.11-12.88c1.89-1.89,4.06-3.29,6.58-4.13c1.75-0.7,3.78,0.28,4.41,2.1
		c0.63,1.75-0.28,3.78-2.1,4.41c-1.47,0.49-2.8,1.33-3.99,2.52c-2.1,2.1-3.08,4.83-3.08,7.98h6.16c1.96,0,3.5,1.54,3.5,3.43
		C572.87,164.64,571.33,166.18,569.37,166.18z M604.3,180.25h-24.15c1.47,4.2,5.39,7.21,10.08,7.21c1.61,0,4.48-0.14,7.84-2.31
		c1.61-1.05,3.78-0.07,4.62,1.61c0.84,1.75-0.07,3.57-1.68,4.62c-4.62,3.08-8.19,3.01-10.78,3.01c-9.73,0-17.57-7.91-17.57-17.57
		c0-9.73,7.84-17.57,17.57-17.57c8.47,0,17.57,6.16,17.57,17.57C607.8,178.71,606.26,180.25,604.3,180.25z"/>
</g>
</svg>
