<?xml version="1.0" encoding="utf-8"?>
<!-- Generator: Adobe Illustrator 23.0.0, SVG Export Plug-In . SVG Version: 6.00 Build 0)  -->
<svg version="1.1" id="Layer_1" xmlns="http://www.w3.org/2000/svg" xmlns:xlink="http://www.w3.org/1999/xlink" x="0px" y="0px"
	 viewBox="0 0 750 350" style="enable-background:new 0 0 750 350;" xml:space="preserve">
<style type="text/css">
	.st0{fill:#FFFFFF;}
</style>
<g>
	<path class="st0" d="M554.3,164c-4.7,0-8.6,3-10.1,7.1h20.2C563,166.2,558.5,164,554.3,164z"/>
	<path class="st0" d="M326.2,164c-5.9,0-10.9,5-10.9,10.9s5,10.4,10.9,10.4s10.4-4.5,10.4-10.4S332.1,164,326.2,164z"/>
	<path class="st0" d="M433.7,164c-5.9,0-10.6,4.8-10.6,10.6c0,5.8,4.8,10.6,10.6,10.6s10.6-4.8,10.6-10.6
		C444.3,168.7,439.6,164,433.7,164z"/>
	<path class="st0" d="M114.3,171.4h-14.3v13.8h14.6c3.4,0,6.7-3,6.7-6.8C121.3,174.9,118.2,171.5,114.3,171.4z"/>
	<path class="st0" d="M116.9,157.3c-0.1-3.9-3.3-6.9-7.3-6.9h-9.5v14.1h9.5C113.6,164.4,116.8,161.3,116.9,157.3z"/>
	<path class="st0" d="M616.1,164c-4.7,0-8.6,3-10.1,7.1h20.2C624.8,166.2,620.3,164,616.1,164z"/>
	<path class="st0" d="M631.6,99.5c-6.6,0.1-13.2,0.7-19.7,1.7C605.8,40.4,551.5-4,490.6,2.2c-19.9,2-38.8,9.3-54.9,21.2
		c-26.6-26.2-68.4-29.1-98.3-6.8c-15.8-9.8-34-14.9-52.6-15c-40.2-0.1-76.4,24.1-91.9,61.1c-15.5-9.4-33.2-14.4-51.3-14.5
		c-54.3,0-98.3,44.5-98.3,98.8c0,4.3,0.4,9,0.9,13.3C3.3,185.6-9.3,239.1,16,279.9c24.2,38.9,74.4,52.4,114.8,30.8
		c19.8,35.4,64.7,48.1,100.1,28.3c8.2-4.6,15.4-10.7,21.3-18c16.7,10.7,36.1,16.5,56,16.7c29.9,0,58.4-13.2,77.8-35.9
		c20.5,21.4,49.2,35.1,80.8,35.1c32.6,0.1,63.5-14.2,84.7-38.9c20.5,20.1,48.7,32.1,80,32.1c63.7,0,115.4-51.7,115.4-115.4
		C747,151.3,695.3,99.5,631.6,99.5z M115.2,192.2c-0.2,0,1.3,0-18.4,0c-0.1,0-0.1,0-0.1,0h-0.1c-2,0-3.5-1.5-3.5-3.5v-41.9
		c0-1.9,1.6-3.5,3.6-3.5c0,0,0,0,0,0c0,0,0,0,0,0c0,0,0,0,0,0c0.2,0,1.8,0,13.5,0c7.4,0.4,13.7,6.3,13.7,14
		c-0.1,3.3-1.2,6.3-3.1,8.7c4.6,2.4,7.6,7.2,7.6,12.4C128.2,185.8,122.5,191.7,115.2,192.2z M160.6,178.1L160.6,178.1
		c-0.1,7.8-6.4,14.1-14.2,14.1c-7.8,0-14.1-6.3-14.1-14.1v-0.1v-17.6c0-1.9,1.5-3.4,3.4-3.4c2,0,3.5,1.5,3.5,3.4V178
		c0,4,3.2,7.3,7.2,7.3c4.1,0,7.3-3.3,7.3-7.3v-17.5c0-1.9,1.5-3.4,3.5-3.4c1.9,0,3.4,1.5,3.4,3.4V178.1z M185.2,164h-5v24.7
		c0,1.9-1.5,3.5-3.5,3.5c-1.9,0-3.4-1.6-3.4-3.5V164h-5c-1.9,0-3.4-1.6-3.4-3.5c0-1.9,1.5-3.4,3.4-3.4h5v-14c0-1.9,1.5-3.4,3.4-3.4
		c2,0,3.5,1.5,3.5,3.4v14h5c2,0,3.5,1.5,3.5,3.4C188.7,162.4,187.2,164,185.2,164z M219.9,188.7c0,2-1.5,3.5-3.4,3.5
		c-2,0-3.5-1.5-3.5-3.5v-42.3c0-1.9,1.5-3.4,3.5-3.4c1.9,0,3.4,1.5,3.4,3.4V188.7z M229.8,154.1c0,2-1.3,3.4-3.2,3.4
		c-1.9,0-3.2-1.5-3.2-3.5v-7.7c0-1.9,1.3-3.5,3.2-3.5c2,0.1,3.2,1.7,3.2,3.6V154.1z M283,171.8v17c0,2-1.6,3.5-3.5,3.5
		s-3.4-1.5-3.4-3.5v-17c0-0.1,0-0.2,0-0.4c0-0.1,0-0.1,0-0.3c0-3.9-3.2-7.1-7.1-7.1s-7.1,3.2-7.1,7.1v17.6c0,2-1.5,3.5-3.4,3.5
		c-1.9,0-3.5-1.5-3.5-3.5v-17.6c0-3.9-3.2-7.1-7.1-7.1s-7.1,3.2-7.1,7.1v17.6c0,2-1.5,3.5-3.4,3.5c-2,0-3.5-1.5-3.5-3.5v-17.6
		c0-7.7,6.3-14,14.1-14c4.2,0,8,1.8,10.6,4.8c2.6-3,6.4-4.8,10.6-4.8c7.8,0,14.1,6.3,14.1,14c0,0.1,0,0.2-0.1,0.3
		C283,171.6,283,171.7,283,171.8z M343.4,188.6c0,2-1.5,3.5-3.5,3.5c-1.4,0-3.4-1.5-3.4-3.5c-3,2.5-6.4,3.5-10.4,3.5
		c-9.9,0-17.7-7.4-17.7-17.2s7.8-17.7,17.7-17.7c9.9,0,17.2,7.8,17.2,17.7V188.6z M379.1,192.2c-5,0-9-3.6-10.3-7.6
		c-0.6-1.8,0.8-3.7,2.7-4.1c1.9-0.3,3.2,1,4.1,2.7c1,1.8,1.8,2.1,3.5,2.1c2,0,3.6-1.6,3.6-3.6c0-2-1.6-3.6-3.6-3.6
		c-2.8,0-5.5-1.1-7.4-3.1c-2-2-3.1-4.6-3.1-7.4c0-5.8,4.7-10.5,10.5-10.5c4.9,0,9.4,3.4,10.1,7.3c0.3,1.9-0.8,3.8-2.7,4.1
		c-1.9,0.4-3.5-0.8-4.1-2.6c-0.4-1.1-1.6-1.9-3.3-1.9c-2,0-3.6,1.6-3.6,3.6c0,2,1.6,3.6,3.6,3.6c2.8,0,5.5,1.1,7.4,3.1
		c2,2,3.1,4.6,3.1,7.4C389.6,187.5,385,192.2,379.1,192.2z M412.7,164h-5v24.7c0,1.9-1.5,3.5-3.5,3.5c-1.9,0-3.4-1.6-3.4-3.5V164h-5
		c-1.9,0-3.4-1.6-3.4-3.5c0-1.9,1.5-3.4,3.4-3.4h5v-14c0-1.9,1.5-3.4,3.4-3.4c2,0,3.5,1.5,3.5,3.4v14h5c2,0,3.5,1.5,3.5,3.4
		C416.2,162.4,414.7,164,412.7,164z M433.7,192.2c-9.7,0-17.6-7.9-17.6-17.6c0-9.7,7.9-17.6,17.6-17.6c9.7,0,17.6,7.8,17.6,17.6
		C451.2,184.3,443.4,192.2,433.7,192.2z M472.9,164c-5.9,0-10.6,4.8-10.6,10.6v14.1c0,1.9-1.5,3.5-3.4,3.5c-2,0-3.5-1.6-3.5-3.5
		v-14.1c0-9.7,7.9-17.6,17.6-17.6c2,0,3.5,1.5,3.5,3.4C476.4,162.4,474.9,164,472.9,164z M508.8,195.3c0,7.9-6.5,14.4-14.5,14.4
		c-5.5,0-10.5-3.2-13-8.1c-0.8-1.7-0.1-3.8,1.6-4.6c1.7-0.8,3.8-0.1,4.6,1.6c1.3,2.6,3.9,4.2,6.8,4.2c4.2,0,7.6-3.4,7.6-7.5v-5
		c-2.1,1.3-4.6,2-7.2,2c-7.7,0-14-6.2-14.1-13.9c0-0.1,0-0.1,0-0.1v-17.4c0-1.9,1.5-3.4,3.4-3.4c1.9,0,3.4,1.5,3.4,3.4v17.4
		c0,4,3.3,7.2,7.2,7.2c4,0,7.2-3.2,7.2-7.2v-17.4c0-1.9,1.5-3.4,3.4-3.4c2,0,3.5,1.5,3.5,3.4V195.3z M533.3,164h-5v24.7
		c0,1.9-1.5,3.5-3.5,3.5c-1.9,0-3.4-1.6-3.4-3.5V164h-5c-1.9,0-3.4-1.6-3.4-3.5c0-1.9,1.5-3.4,3.4-3.4h5v-14c0-1.9,1.5-3.4,3.4-3.4
		c2,0,3.5,1.5,3.5,3.4v14h5c2,0,3.5,1.5,3.5,3.4C536.8,162.4,535.3,164,533.3,164z M568.3,178h-24.2c1.5,4.2,5.4,7.2,10.1,7.2
		c1.6,0,4.5-0.1,7.8-2.3c1.6-1,3.8-0.1,4.6,1.6c0.8,1.8-0.1,3.6-1.7,4.6c-4.6,3.1-8.2,3-10.8,3c-9.7,0-17.6-7.9-17.6-17.6
		c0-9.7,7.8-17.6,17.6-17.6c8.5,0,17.6,6.2,17.6,17.6C571.8,176.5,570.3,178,568.3,178z M583,188.7c0,2-1.5,3.5-3.4,3.5
		c-2,0-3.5-1.5-3.5-3.5v-45.6c0-1.9,1.5-3.4,3.5-3.4c1.9,0,3.4,1.5,3.4,3.4V188.7z M594.3,188.7c0,2-1.5,3.5-3.4,3.5
		c-2,0-3.5-1.5-3.5-3.5v-45.6c0-1.9,1.5-3.4,3.5-3.4c1.9,0,3.4,1.5,3.4,3.4V188.7z M630.2,178H606c1.5,4.2,5.4,7.2,10.1,7.2
		c1.6,0,4.5-0.1,7.8-2.3c1.6-1,3.8-0.1,4.6,1.6c0.8,1.8-0.1,3.6-1.7,4.6c-4.6,3.1-8.2,3-10.8,3c-9.7,0-17.6-7.9-17.6-17.6
		c0-9.7,7.8-17.6,17.6-17.6c8.5,0,17.6,6.2,17.6,17.6C633.7,176.5,632.1,178,630.2,178z M655.4,164c-5.9,0-10.6,4.8-10.6,10.6v14.1
		c0,1.9-1.5,3.5-3.4,3.5c-2,0-3.5-1.6-3.5-3.5v-14.1c0-9.7,7.9-17.6,17.6-17.6c2,0,3.5,1.5,3.5,3.4C658.9,162.4,657.4,164,655.4,164
		z"/>
</g>
</svg>
